<?xml version="1.0" encoding="UTF-8"?>
<svg width="839px" height="865px" viewBox="0 0 839 865" version="1.1" xmlns="http://www.w3.org/2000/svg" xmlns:xlink="http://www.w3.org/1999/xlink">
    <!-- Generator: Sketch 52.2 (67145) - http://www.bohemiancoding.com/sketch -->
    <title>Slice 1</title>
    <desc>Created with Sketch.</desc>
    <defs>
        <path d="M472.039555,744.341763 L472.039555,740.817363 C481.672915,730.479123 491.188795,720.023403 500.822155,709.685163 C508.810795,700.991643 512.687635,693.942843 512.687635,688.421283 C512.687635,681.724923 508.340875,673.501323 496.240435,673.501323 C488.956675,673.501323 483.200155,678.435483 479.558275,682.312323 C478.618435,683.252163 477.326155,683.252163 476.386315,682.312323 L474.036715,680.080203 C473.331835,679.257843 473.096875,677.965563 473.919235,677.025723 C473.919235,677.025723 482.260315,665.512683 496.240435,665.512683 C513.040075,665.512683 521.616115,676.203363 521.616115,688.186323 C521.616115,698.524563 515.037235,706.160763 506.931115,714.854283 C499.412395,722.842923 491.893675,730.949043 484.374955,738.937683 L518.914075,738.937683 C520.088875,738.937683 521.146195,739.995003 521.146195,741.169803 L521.146195,744.341763 C521.146195,745.516563 520.088875,746.573883 518.914075,746.573883 L474.271675,746.573883 C472.979395,746.573883 472.039555,745.516563 472.039555,744.341763 Z M565.201195,747.748683 C546.991795,747.748683 536.653555,732.358803 536.653555,706.630683 C536.653555,680.902563 546.991795,665.512683 565.201195,665.512683 C583.410595,665.512683 593.748835,680.902563 593.748835,706.630683 C593.748835,732.358803 583.410595,747.748683 565.201195,747.748683 Z M565.201195,740.112483 C578.123995,740.112483 585.407755,728.129523 585.407755,706.630683 C585.407755,685.366803 578.123995,673.148883 565.201195,673.148883 C552.278395,673.148883 544.994635,685.366803 544.994635,706.630683 C544.994635,728.129523 552.278395,740.112483 565.201195,740.112483 Z M619.829395,744.341763 L619.829395,681.255003 L611.370835,687.833883 C610.430995,688.538763 609.491155,688.656243 608.668795,687.716403 L606.436675,685.249323 C605.614315,684.309483 606.084235,683.252163 606.671635,682.664763 L623.118835,666.687483 L626.290795,666.687483 C627.465595,666.687483 628.405435,667.744803 628.405435,668.919603 L628.405435,744.341763 C628.405435,745.516563 627.465595,746.573883 626.290795,746.573883 L622.061515,746.573883 C620.769235,746.573883 619.829395,745.516563 619.829395,744.341763 Z M655.660795,744.576723 C655.073395,743.166963 655.543315,741.874683 657.775435,741.169803 C663.062035,739.407603 683.855995,727.777083 687.967795,711.917283 C687.967795,711.917283 680.214115,717.203883 670.110835,717.203883 C656.835595,717.203883 644.852635,707.335563 644.852635,691.710723 C644.852635,676.908243 656.718115,664.807803 670.815715,664.807803 C689.847475,664.807803 698.188555,679.610283 698.188555,698.289603 C698.188555,729.539283 671.403115,743.871843 659.537635,748.571043 C658.362835,749.040963 657.422995,748.453563 656.953075,747.396243 L655.660795,744.576723 Z M670.933195,709.567683 C681.858835,709.567683 689.495035,701.931483 689.495035,701.931483 C691.492195,690.183483 686.910475,672.561483 670.815715,672.561483 C660.947395,672.561483 653.193715,681.137523 653.193715,691.240803 C653.193715,701.461563 661.064875,709.567683 670.933195,709.567683 Z" id="path-1"></path>
    </defs>
    <g id="Page-1" stroke="none" stroke-width="1" fill="none" fill-rule="evenodd">
        <g id="uxcamp-brighton">
            <rect id="Rectangle" fill="#00AEEF" x="0" y="0" width="838.27" height="864.42"></rect>
            <circle id="Oval" fill="#EC008C" cx="580.12" cy="204.9" r="108.25"></circle>
            <path d="M610.84,154 L606,152.54 C606,152.54 603.58,148.37 600,147.98 C596.42,147.59 590.85,151.22 588.75,152.38 C586.351025,153.769041 583.552381,154.304801 580.81,153.9 L573.75,152 C573.760162,151.324549 573.311672,150.727934 572.66,150.55 C571.48,150.16 571.42,150.89 570.86,151.46 C569.821824,151.275232 568.796427,151.024728 567.79,150.71 L567.57,151.35 C568.558323,151.634444 569.511107,152.030319 570.41,152.53 C570.69,153.23 570.01,153.6 571.41,154.01 C572.81,154.42 573.11,153.65 573.11,153.65 C573.11,153.65 577.74,155.27 580.17,156.17 C581.39,156.61 583.35,158.17 585.67,161.26 C587.16,163.26 587.79,169.75 591.92,172.01 C594.84,173.61 599.72,171.55 599.72,171.55 L601.12,172.31 L599.42,174.9 L589.79,174.9 C589.283175,174.103518 588.510971,173.511967 587.61,173.23 C585.1,172.3 583.88,173.69 583.88,173.69 L555.21,164.43 C555.21,164.43 555.97,162.67 553.73,161.92 C552.24,161.41 551.56,163.19 551.56,163.19 L548.93,162.38 C548.993641,161.640219 548.596497,160.937274 547.93,160.61 C547.2,160.32 546.62,161.03 546.13,161.51 C544.13,160.89 544.05,161.02 542.13,161.46 C541.022058,161.363658 539.932205,161.118105 538.89,160.73 L538.71,161.24 C539.801314,161.570381 540.8438,162.044544 541.81,162.65 C542.629944,163.744152 543.802799,164.521345 545.13,164.85 C545.18,165.45 544.92,166.44 545.75,166.72 C546.87,167.09 547.64,165.78 547.64,165.78 L550.46,166.78 C550.231594,167.163211 550.198015,167.631908 550.369458,168.043766 C550.540902,168.455624 550.897141,168.762052 551.33,168.87 C551.838665,169.109149 552.423213,169.12895 552.946896,168.92477 C553.470578,168.720591 553.887454,168.310343 554.1,167.79 L582.5,177.39 C583.147359,178.351866 584.108872,179.05886 585.22,179.39 C586.136962,179.724444 587.145424,179.706627 588.05,179.34 L591.66,181.54 L588.12,183 L584.45,181.33 C584.45,181.33 580.39,179.15 579.66,179.28 C578.93,179.41 578.08,181.92 577.11,182.02 C565.71,168.76 553.46,172.4 541.65,183.38 C536.84,187.85 533.88,187.38 533.49,187.38 C531.06,186.66 527.16,185.67 527.16,185.67 C527.16,185.67 526.89,184.61 526.45,184.46 C526.01,184.31 525.38,184.85 525.38,184.85 C525.09,183.75 524.38,183.56 522.85,183.06 C522.081184,182.721092 521.180293,182.952514 520.67,183.62 L517.48,182.62 C517.48,182.62 517.14,181.43 516.58,181.24 C516.02,181.05 514.87,181.85 514.87,181.85 L510,180.65 L509.87,181.2 L514.46,183.3 C514.46,183.3 514.95,184.43 515.46,184.55 C515.953756,184.563154 516.442644,184.449539 516.88,184.22 L520.04,185.51 C520.312066,186.256137 520.880171,186.856808 521.61,187.17 C522.67,187.53 523.61,187.83 524.5,187.29 C524.55,187.29 524.79,188.09 525.18,188.22 C525.57,188.35 526.42,187.88 526.42,187.88 C528.518582,188.563961 530.56971,189.385749 532.56,190.34 C533.1,190.61 535.62,191.05 536.81,197.87 C539.45,213.11 546.88,225.17 564.14,220.51 C565.04,220.9 564.14,223.69 564.46,224.23 C564.78,224.77 569.71,225.28 569.71,225.28 L573.22,227.05 L575.39,229.83 C573.987168,229.735522 572.600662,229.473663 571.26,229.05 C570.36,228.75 570.62,227.5 569.2,227.05 C567.56,226.5 565.41,228.05 565.41,228.05 L537.13,217.74 C537.13,217.74 537.39,215.51 535.67,214.87 C534.12,214.29 533.79,216.07 533.79,216.07 L531,215 C531,215 531,213.67 530,213.32 C529.16,213.04 528.86,213.74 528.51,214.05 C526.51,213.42 525.95,214.21 524.41,214.37 C523.282892,214.174774 522.175247,213.880295 521.1,213.49 L520.9,214.07 C521.964991,214.474805 523.000784,214.952606 524,215.5 C525.12,216.5 525,217.41 527,218.27 C527.14,218.8 527,219.55 527.92,219.86 C528.84,220.17 529.53,219.16 529.53,219.16 L532.36,220.16 C532.157427,220.554136 532.143467,221.018624 532.322004,221.424213 C532.500542,221.829803 532.852521,222.133208 533.28,222.25 C534.263778,222.529527 535.306878,222.066862 535.76,221.15 L564.25,231.59 C564.25,231.59 564.43,234.18 566.44,234.87 C568.23,235.47 567.71,234.43 569.28,234.87 C571.934722,235.94755 574.531567,237.162526 577.06,238.51 L575.79,242.28 C575.79,242.28 572.5,237.96 569.65,237.58 C565.65,237.05 562.77,238.99 558.71,241.08 C554.29,243.36 551.09,242.39 551.09,242.39 L543.88,240.24 C544.124159,239.429493 543.681815,238.571345 542.88,238.3 C541.72,237.91 541.68,239.24 541.06,239.38 C539.942891,239.308924 538.838337,239.104128 537.77,238.77 L537.59,239.32 C537.59,239.32 540.47,240.15 540.74,240.82 C540.92,241.27 540.28,242.17 541.4,242.55 C542.178733,242.869044 543.069367,242.503884 543.4,241.73 L550.48,244.62 C550.48,244.62 553.99,246.02 555.34,251.37 C556.69,256.72 557.96,259.82 561.56,261.46 C565.16,263.1 569.56,261.01 569.56,261.01 L574.05,262.46 C574.05,262.46 613.15,277.93 632.26,223.93 C651.37,169.93 610.84,154 610.84,154 Z M588,228.1 C598,220.98 604.11,205.32 599.66,193.84 C599.84,192.13 602.76,191.35 604.03,192.34 C610.13,203.09 604.78,223.08 591.17,231.59 C589.74,232.16 587.38,229.61 588,228.1 Z M595.12,237.99 C611.35,227.43 614.97,201.75 611.59,190.99 C611.77,189.28 614.68,188.49 615.96,189.49 C622.16,202.2 617.85,228.85 598.28,241.42 C596.85,242 594.5,239.5 595.09,238 L595.12,237.99 Z M605.62,250.46 C604.22,251.04 601.86,248.46 602.45,246.98 C620.93,235.13 627.75,204.98 622.63,187.98 C622.8,186.27 625.72,185.49 626.99,186.48 C634.45,201.83 628.19,238.2 605.59,250.46 L605.62,250.46 Z" id="Shape" fill="#FFFFFF" fill-rule="nonzero"></path>
            <path d="M176.07,150.72 C176.370492,148.500195 178.345879,146.897109 180.58,147.06 L207,149.84 C208.083581,149.953192 209.077219,150.494027 209.760554,151.342563 C210.443888,152.191099 210.760438,153.277201 210.64,154.36 L201.47,241.55 C199.88,256.62 209.78,269.85 225.03,271.46 C240.49,273.08 253.15,262.22 254.73,247.15 L263.91,160 C264.14627,157.744756 266.164419,156.106968 268.42,156.34 L294.84,159.12 C297.052104,159.439227 298.643771,161.410277 298.49,163.64 L289.13,252.56 C285.68,285.28 255.34,309.56 221.41,305.94 C187.69,302.39 163.27,272.4 166.71,239.67 L176.07,150.72 Z" id="Path" fill="#FFF200"></path>
            <path d="M339.73,238 L303.44,166.05 C302.02,163.05 304.07,160.05 307.73,160.41 L339.08,163.71 C340.448556,163.956075 341.636274,164.799208 342.32,166.01 L362.8,208.65 L363.01,208.65 L392.36,171.26 C393.240069,170.167303 394.600775,169.576667 396,169.68 L427.35,172.98 C431.01,173.36 432.6,176.8 430.35,179.39 L379.66,242.19 L417.26,318.19 C418.88,321.4 416.63,324.19 413.19,323.85 L383.34,320.71 C381.898982,320.496503 380.631296,319.64403 379.89,318.39 L356.35,272 L355.92,271.95 L323.86,312.55 C322.879105,313.631259 321.45628,314.202601 320,314.1 L290.15,311 C286.5,310.62 284.9,307.18 287.15,304.59 L339.73,238 Z" id="Path" fill="#FFF200"></path>
            <path d="M184,314.3 C206.64,316.69 222.66,325.49 236.57,341.18 C237.434005,342.048511 237.881208,343.247613 237.79692,344.469788 C237.712632,345.691963 237.105053,346.818321 236.13,347.56 L216.53,364.08 C215.703721,364.758532 214.640186,365.078027 213.57677,364.967176 C212.513353,364.856325 211.538575,364.324356 210.87,363.49 C203.219262,355.142023 192.781,349.878437 181.52,348.69 C155.94,346 134.9,365.36 132.22,390.78 C129.6,416 146.43,438.85 172,441.54 C182.64,442.66 194.6,440.02 203.49,433.84 C205.22,432.65 208.16,432.96 209.35,434.69 L225,455.39 C226.330475,457.342511 225.95327,459.987285 224.13,461.49 C207.13,474.85 186.94,479.83 166.79,477.71 C137.403029,474.873711 111.79729,456.488171 99.7163924,429.549527 C87.6354947,402.610883 90.9371416,371.261544 108.364976,347.430698 C125.79281,323.599852 154.666919,310.952016 184,314.3 Z" id="Path" fill="#FFFFFF"></path>
            <path d="M220.44,475.09 L307.39,329.81 C308.28817,328.429031 309.85498,327.632284 311.5,327.72 L313.76,327.96 C315.386629,328.220818 316.753,329.324572 317.35,330.86 L372.15,491.06 C372.737788,492.427225 372.517937,494.007736 371.579318,495.162637 C370.640699,496.317537 369.138515,496.855861 367.68,496.56 L342.54,493.91 C338.47,493.48 336.8,491.91 335.22,487.4 L329,468.62 L267.41,462.13 L257.35,479.43 C255.724058,482.667406 252.219168,484.512297 248.63,484.02 L223.72,481.4 C222.222353,481.405412 220.84715,480.573755 220.156401,479.244906 C219.465652,477.916057 219.575094,476.312666 220.44,475.09 Z M318.61,436.32 L305.35,397.06 L305.12,397.06 L284.2,432.7 L318.61,436.32 Z" id="Shape" fill="#FFFFFF" fill-rule="nonzero"></path>
            <path d="M417.76,342.58 C418.300465,340.589906 420.161281,339.250619 422.22,339.37 L425.84,339.75 C427.396567,340.028847 428.732643,341.020726 429.45,342.43 L471.66,446 L472.11,446.05 L535,353.53 C535.992301,352.297864 537.509183,351.608035 539.09,351.67 L542.71,352.05 C544.747973,352.358603 546.291407,354.052209 546.41,356.11 L555.94,511.32 C556.068646,512.612071 555.589536,513.890557 554.643423,514.779864 C553.69731,515.669172 552.391643,516.068302 551.11,515.86 L524.4,513.05 C522.316106,512.735137 520.706164,511.055377 520.48,508.96 L517.67,437.76 L517.21,437.71 L471.4,507.24 C470.412899,508.524618 468.899469,509.296027 467.28,509.34 L463.21,508.91 C461.609965,508.584376 460.269726,507.497998 459.62,506 L429.1,428.44 L428.64,428.44 L411.3,497.48 C410.703704,499.527971 408.73263,500.860232 406.61,500.65 L379.9,497.84 C378.604358,497.776694 377.411531,497.115448 376.671327,496.050181 C375.931122,494.984914 375.727436,493.636362 376.12,492.4 L417.76,342.58 Z" id="Path" fill="#FFFFFF"></path>
            <path d="M578,362.42 C578.115987,361.277383 578.682187,360.227982 579.573488,359.503683 C580.464788,358.779384 581.607817,358.439811 582.75,358.56 L637.32,364.3 C665.17,367.24 685.65,392.3 682.76,419.8 C679.76,447.94 654.52,468.46 626.89,465.55 L603.12,463.05 L597.51,516.38 C597.184554,518.717799 595.104605,520.40448 592.75,520.24 L566,517.43 C564.857265,517.311626 563.808746,516.742952 563.08627,515.849708 C562.363794,514.956465 562.026873,513.812233 562.15,512.67 L578,362.42 Z M628.12,432.18 C632.875718,432.70255 637.642705,431.299526 641.357105,428.284042 C645.071505,425.268558 647.424151,420.891606 647.89,416.13 C648.89,406.6 641.51,398.48 631.77,397.45 L610.26,395.19 L606.61,429.91 L628.12,432.18 Z" id="Shape" fill="#FFFFFF" fill-rule="nonzero"></path>
            <path d="M176.08,495.7 C176.226973,494.326646 177.455908,493.330091 178.83,493.47 L209.36,496.68 C224.81,498.31 236.36,510.28 234.95,524.07 C233.89,534.18 224.07,540.58 217.57,543.22 C224.21,546.84 234.15,554.39 232.87,566.47 C231.33,581.18 217.24,590.47 201.65,588.81 L169.16,585.39 C167.785166,585.237935 166.789881,584.006103 166.93,582.63 L176.08,495.7 Z M201,569.75 C206.2552,570.255252 210.928654,566.413628 211.45,561.16 C212,555.91 206.78,551.38 201.67,550.84 L191.06,549.72 L189.06,568.5 L201,569.75 Z M203.07,533.75 C208.215315,534.190009 212.753895,530.401164 213.24,525.26 C213.490108,522.849943 212.757882,520.440845 211.208938,518.577595 C209.659994,516.714345 207.425192,515.554358 205.01,515.36 L194.79,514.29 L192.86,532.67 L203.07,533.75 Z" id="Shape" fill="#2E3192" fill-rule="nonzero"></path>
            <path d="M243.16,502.76 C243.228051,502.099227 243.556278,501.492703 244.072227,501.074315 C244.588176,500.655928 245.249422,500.460078 245.91,500.53 L285.08,504.65 C300.777227,506.284671 312.204141,520.294596 310.65,536 C309.38,548.08 300.37,557 288.48,560.35 L302.92,595.59 C303.333748,596.425951 303.247721,597.422714 302.696862,598.175413 C302.146004,598.928113 301.221934,599.311559 300.3,599.17 L282.87,597.33 C281.9988,597.260497 281.233501,596.724788 280.87,595.93 L267.11,559.3 L258.11,558.3 L254.58,591.78 C254.398584,593.135657 253.194328,594.116579 251.83,594.02 L236.24,592.38 C234.866357,592.228061 233.873971,590.994284 234.02,589.62 L243.16,502.76 Z M279.24,543.76 C284.61,544.33 289.72,539.82 290.3,534.31 C290.826534,528.830685 286.868526,523.938766 281.4,523.31 L262.01,521.31 L259.85,541.79 L279.24,543.76 Z" id="Shape" fill="#2E3192" fill-rule="nonzero"></path>
            <path d="M317.83,510.62 C318.016191,509.268355 319.219047,508.292948 320.58,508.39 L336.3,510 C337.650567,510.195545 338.622511,511.39849 338.53,512.76 L329.38,599.69 C329.193809,601.041645 327.990953,602.017052 326.63,601.92 L310.91,600.27 C309.556846,600.07901 308.582492,598.873083 308.68,597.51 L317.83,510.62 Z" id="Path" fill="#2E3192"></path>
            <path d="M388.82,514.38 C399.82,515.53 411.4,521.38 419.49,530.08 C420.008014,530.538805 420.295294,531.204124 420.274042,531.895781 C420.25279,532.587437 419.925205,533.233863 419.38,533.66 L407.87,543.6 C406.783728,544.386914 405.290472,544.285961 404.32,543.36 C399.82,538.24 394.24,535.92 387.82,535.25 C373.54,533.75 360.74,544.61 359.22,559.06 C357.717485,573.414674 368.068502,586.296534 382.41,587.92 C386.389715,588.394659 390.423656,588.095849 394.29,587.04 L395.09,579.43 L386.84,578.56 C386.18869,578.522463 385.581032,578.220309 385.158019,577.723646 C384.735005,577.226983 384.533407,576.578984 384.6,575.93 L385.97,562.93 C386.016217,562.260245 386.338578,561.639786 386.860027,561.216939 C387.381475,560.794092 388.055145,560.60686 388.72,560.7 L415.05,563.47 C416.37228,563.671105 417.299491,564.880895 417.15,566.21 L413.56,601.55 C413.404326,602.353087 412.950634,603.067563 412.29,603.55 C401.787366,608.106162 390.285263,609.869887 378.9,608.67 C352.865297,605.930668 333.980668,582.604703 336.72,556.57 C339.459332,530.535297 362.785297,511.650668 388.82,514.39 L388.82,514.38 Z" id="Path" fill="#2E3192"></path>
            <path d="M426.82,522.09 C427.006191,520.738355 428.209047,519.762948 429.57,519.86 L445.16,521.5 C445.822702,521.567962 446.430872,521.897609 446.849543,522.415786 C447.268215,522.933962 447.462758,523.597807 447.39,524.26 L443.91,557.35 L481.38,561.29 L484.86,528.2 C485.006973,526.826646 486.235908,525.830091 487.61,525.97 L503.2,527.61 C504.553154,527.80099 505.527508,529.006917 505.43,530.37 L496.28,617.29 C496.09396,618.643065 494.892724,619.621526 493.53,619.53 L477.94,617.89 C476.562326,617.743138 475.564198,616.507787 475.71,615.13 L479.34,580.59 L441.88,576.65 L438.24,611.19 C438.093027,612.563354 436.864092,613.559909 435.49,613.42 L419.9,611.78 C418.549433,611.584455 417.577489,610.38151 417.67,609.02 L426.82,522.09 Z" id="Path" fill="#2E3192"></path>
            <path d="M527.5,549.68 L508.76,547.68 C508.099107,547.609567 507.493463,547.278867 507.076897,546.760974 C506.660331,546.243081 506.467135,545.580629 506.54,544.92 L508.04,530.61 C508.186862,529.232326 509.422213,528.234198 510.8,528.38 L569,534.53 C570.377674,534.676862 571.375802,535.912213 571.23,537.29 L569.72,551.6 C569.573027,552.973354 568.344092,553.969909 566.97,553.83 L548.24,551.83 L540.82,622 C540.629221,623.349054 539.429365,624.322027 538.07,624.23 L522.35,622.58 C520.994232,622.393631 520.017425,621.184668 520.12,619.82 L527.5,549.68 Z" id="Path" fill="#2E3192"></path>
            <path d="M614,538 C633.140783,539.909256 649.243652,553.167226 654.792159,571.585393 C660.340666,590.003561 654.240735,609.950165 639.339674,622.114589 C624.438613,634.279013 603.674668,636.262631 586.739971,627.139536 C569.805273,618.016441 560.03907,599.585558 562,580.45 C563.246973,567.916985 569.431727,556.395893 579.18841,548.431062 C588.945093,540.466231 601.471041,536.712914 614,538 Z M606.27,611.53 C620.775759,613.06259 633.777409,602.545759 635.31,588.04 C636.84259,573.534241 626.325759,560.53259 611.82,559 C597.54,557.49 584.5,568.2 582.98,582.65 C581.554659,597.022218 591.947255,609.870355 606.3,611.48 L606.27,611.53 Z" id="Shape" fill="#2E3192" fill-rule="nonzero"></path>
            <path d="M663.57,545.55 C663.761384,544.226339 664.971534,543.295454 666.3,543.45 L669.58,543.79 L716.58,599.72 L716.71,599.72 L721.62,553.11 C721.761885,551.732617 722.992393,550.730313 724.37,550.87 L740.09,552.53 C741.441645,552.716191 742.417052,553.919047 742.32,555.28 L733,643.67 C732.798895,644.99228 731.589105,645.919491 730.26,645.77 L728.16,645.55 C727.556943,645.405367 726.99775,645.117194 726.53,644.71 L680.27,587.14 L680.14,587.14 L674.98,636.14 C674.833027,637.513354 673.604092,638.509909 672.23,638.37 L656.64,636.73 C655.289753,636.543676 654.317392,635.339174 654.42,633.98 L663.57,545.55 Z" id="Path" fill="#2E3192"></path>
            <g id="2019" transform="translate(585.114055, 706.771308) rotate(-5.510000) translate(-585.114055, -706.771308) ">
                <use fill="#000000" xlink:href="#path-1"></use>
                <use fill="#FFFFFF" xlink:href="#path-1"></use>
            </g>
        </g>
    </g>
</svg>