<?xml version="1.0" encoding="iso-8859-1"?>
<!-- Generator: Adobe Illustrator 16.0.0, SVG Export Plug-In . SVG Version: 6.00 Build 0)  -->
<!DOCTYPE svg PUBLIC "-//W3C//DTD SVG 1.1//EN" "http://www.w3.org/Graphics/SVG/1.1/DTD/svg11.dtd">
<svg version="1.1" xmlns="http://www.w3.org/2000/svg" xmlns:xlink="http://www.w3.org/1999/xlink" x="0px" y="0px" width="512px"
	 height="512px" viewBox="0 0 512 512" style="enable-background:new 0 0 512 512;" xml:space="preserve">
<g id="Layer_22">
	<g>
		<g>
			<g>
				<g>
					<path style="fill:#45A8A3;" d="M512,255.998C512,397.385,397.383,512,256,512S0,397.385,0,255.998C0,114.615,114.617,0,256,0
						S512,114.615,512,255.998z"/>
				</g>
			</g>
			<g>
				<g>
					<g>
						<path style="fill:#F8F4EA;" d="M368.104,156.859H141.643c-10.832,0-19.693,8.861-19.693,19.691v37.801
							c0,10.828,0,28.553,0,39.385v60.662c0,10.828,8.861,19.691,19.693,19.691h137.846l39.385,39.385V334.09h49.23
							c10.826,0,19.693-8.863,19.693-19.691v-60.662c0-10.832,0-28.557,0-39.385v-37.801
							C387.797,165.721,378.93,156.859,368.104,156.859z"/>
					</g>
				</g>
				<g>
					<g>
						<rect x="176.104" y="230.703" style="fill:#343434;" width="68.924" height="9.848"/>
					</g>
					<g>
						<rect x="176.104" y="250.395" style="fill:#343434;" width="49.232" height="9.85"/>
					</g>
					<g>
						<rect x="235.18" y="250.395" style="fill:#343434;" width="49.23" height="9.85"/>
					</g>
					<g>
						<rect x="294.258" y="250.395" style="fill:#343434;" width="9.844" height="9.85"/>
					</g>
					<g>
						<rect x="294.258" y="250.395" style="fill:#343434;" width="39.385" height="9.85"/>
					</g>
					<g>
						<rect x="254.871" y="230.703" style="fill:#343434;" width="19.693" height="9.848"/>
					</g>
					<g>
						<rect x="284.41" y="230.703" style="fill:#343434;" width="59.076" height="9.848"/>
					</g>
					<g>
						<rect x="304.102" y="211.012" style="fill:#343434;" width="29.541" height="9.848"/>
					</g>
					<g>
						<rect x="176.104" y="211.012" style="fill:#343434;" width="19.691" height="9.848"/>
					</g>
					<g>
						<rect x="205.641" y="211.012" style="fill:#343434;" width="88.617" height="9.848"/>
					</g>
				</g>
			</g>
		</g>
		<g>
			<path style="fill:#3A8F8B;" d="M382.012,162.646c3.57,3.568,5.785,8.488,5.785,13.904v37.801c0,10.828,0,28.553,0,39.385v60.662
				c0,10.828-8.867,19.691-19.693,19.691h-49.23v39.385l-39.385-39.385h-68.926h-68.92c-5.416,0-10.338-2.215-13.908-5.785
				l44.309,44.309l134.404,134.404c106.225-21.229,188.709-108.193,203.256-216.686L382.012,162.646z"/>
		</g>
	</g>
</g>
<g id="Layer_1">
</g>
</svg>
