<?xml version="1.0" encoding="UTF-8"?>
<svg width="255px" height="211px" viewBox="0 0 255 211" version="1.1" xmlns="http://www.w3.org/2000/svg" xmlns:xlink="http://www.w3.org/1999/xlink">
    <!-- Generator: Sketch 43.2 (39069) - http://www.bohemiancoding.com/sketch -->
    <title>cyber essentials</title>
    <desc>Created with Sketch.</desc>
    <defs></defs>
    <g id="Page-1" stroke="none" stroke-width="1" fill="none" fill-rule="evenodd">
        <g id="CREST_CE-flyer_2016" transform="translate(-52.000000, -331.000000)">
            <g id="cyber-essentials" transform="translate(52.000000, 331.000000)">
                <path d="M155,193.593358 L155.128493,180.284256 L158.407863,166.423625 L163.949831,152.25659 L172.419208,136.730233 L187.793699,118.000555 L198.592714,108.591147 L211.285607,102.875309 C211.285607,102.875309 218.4924,100.19009 226.665684,98.1511066 C234.838969,96.1121231 238.889298,96.4352407 243.012254,101.967237 C246.688276,106.897566 254.744241,118.774923 254.744241,118.774923 C254.744241,118.774923 256.280573,120.730341 251.822418,121.39886 C246.43129,122.206654 228.174083,125.994929 211.240914,134.613256 C194.313332,143.231582 192.832867,157.493324 192.832867,157.493324 L169.704091,187.77167 L155,200 L155,193.593358 Z" id="Fill-250" fill="#70C9E7"></path>
                <path d="M210.992684,103.395884 L210.992684,102.71786 L210.992684,24.1511088 C210.992684,22.0105696 210.712607,19.9092551 210.163658,17.835958 C207.407707,7.41343779 197.79549,0 187.029358,0 C132.660952,0 78.2869449,0 23.9129376,0.0168105165 C22.6581959,0.0168105165 21.3754466,0.100863099 20.143111,0.32500332 C12.541841,1.70346568 6.80027747,5.77161068 2.98563866,12.4846103 C0.907472728,16.1436994 -0.00557591567,20.1221883 2.56097519e-05,24.3304209 C0.00562713517,56.5393706 0.00562713517,88.7483203 0.00562713517,120.95727 C0.00562713517,142.810941 0.00562713517,164.664613 2.56097519e-05,186.518284 C2.56097519e-05,188.003213 0.056040864,189.476935 0.33051561,190.928243 C1.85973205,198.986084 6.28493713,204.897782 13.6061309,208.596096 C17.0118583,210.310769 20.6640529,211 24.4674887,211 C42.5940249,210.983189 60.7149597,210.988793 78.8414959,210.988793 C114.646446,210.988793 150.445795,210.994396 186.250746,210.983189 C187.606315,210.983189 188.978689,210.938361 190.311852,210.736635 C196.815223,209.739211 202.080657,206.606852 206.080146,201.384385 C209.480272,196.935201 210.970278,191.830408 210.981481,186.299748 C211.01509,169.528456 210.992684,152.757164 210.992684,135.980268 C210.992684,135.784146 210.970278,135.582419 210.953473,135.319055 C210.740615,135.431125 210.594975,135.492763 210.460539,135.571212 C202.175883,140.58635 194.451379,146.335546 187.561503,153.16622 C175.372584,165.252981 165.301041,178.942345 156.842737,193.853273 C156.753113,194.015775 156.66909,194.18388 156.579466,194.346382 C156.417022,194.620953 156.204164,194.850697 155.845666,194.761041 C155.49277,194.671385 155.408747,194.380003 155.391942,194.049396 C155.352732,193.348958 155.291115,192.648519 155.268709,191.948081 C155.08946,186.871305 155.509574,181.839357 156.41142,176.846634 C157.755786,169.410782 160.063615,162.27752 163.20607,155.418829 C169.563802,141.544549 178.40861,129.41296 189.213953,118.704661 C195.48206,112.495977 202.584794,107.413597 210.578171,103.631231 C210.701404,103.569592 210.819036,103.496747 210.992684,103.395884" id="Fill-252" fill="#FFFFFF"></path>
                <path d="M210.992684,103.395884 C210.819036,103.496747 210.701404,103.569592 210.578171,103.631231 C202.584794,107.413597 195.48206,112.495977 189.213953,118.704661 C178.40861,129.41296 169.563802,141.544549 163.20607,155.418829 C160.063615,162.27752 157.755786,169.410782 156.41142,176.846634 C155.509574,181.839357 155.08946,186.871305 155.268709,191.948081 C155.291115,192.648519 155.352732,193.348958 155.391942,194.049396 C155.408747,194.380003 155.49277,194.671385 155.845666,194.761041 C156.204164,194.850697 156.417022,194.620953 156.579466,194.346382 C156.66909,194.18388 156.753113,194.015775 156.842737,193.853273 C165.301041,178.942345 175.372584,165.252981 187.561503,153.16622 C194.451379,146.335546 202.175883,140.58635 210.460539,135.571212 C210.594975,135.492763 210.740615,135.431125 210.953473,135.319055 C210.970278,135.582419 210.992684,135.784146 210.992684,135.980268 C210.992684,152.757164 211.01509,169.528456 210.981481,186.299748 C210.970278,191.830408 209.480272,196.935201 206.080146,201.384385 C202.080657,206.606852 196.815223,209.739211 190.311852,210.736635 C188.978689,210.938361 187.606315,210.983189 186.250746,210.983189 C150.445795,210.994396 114.646446,210.988793 78.8414959,210.988793 C60.7149597,210.988793 42.5940249,210.983189 24.4674887,211 C20.6640529,211 17.0118583,210.310769 13.6061309,208.596096 C6.28493713,204.897782 1.85973205,198.986084 0.33051561,190.928243 C0.056040864,189.476935 2.56097519e-05,188.003213 2.56097519e-05,186.518284 C0.00562713517,164.664613 0.00562713517,142.810941 0.00562713517,120.95727 C0.00562713517,88.7483203 0.00562713517,56.5393706 2.56097519e-05,24.3304209 C-0.00557591567,20.1221883 0.907472728,16.1436994 2.98563866,12.4846103 C6.80027747,5.77161068 12.541841,1.70346568 20.143111,0.32500332 C21.3754466,0.100863099 22.6581959,0.0168105165 23.9129376,0.0168105165 C78.2869449,0 132.660952,0 187.029358,0 C197.79549,0 207.407707,7.41343779 210.163658,17.835958 C210.712607,19.9092551 210.992684,22.0105696 210.992684,24.1511088 L210.992684,102.71786 L210.992684,103.395884 Z M125.866302,141.757482 C125.474195,141.768689 125.289345,141.953605 125.322954,142.278608 C125.362165,142.575594 125.451789,142.87258 125.541413,143.158359 C129.288834,154.763219 134.162161,165.869367 140.178199,176.471199 C143.813589,182.881609 147.902703,188.983827 152.619187,194.654574 C152.736819,194.800266 152.843248,194.957164 152.988888,195.074837 C153.352987,195.377427 153.789906,195.198114 153.857124,194.72742 C153.873929,194.61535 153.868327,194.497676 153.862726,194.380003 C153.845921,190.132545 154.125998,185.907502 154.635736,181.69927 C155.2351,176.71215 156.170554,171.797875 157.503717,166.96205 C159.262596,160.56845 161.665651,154.432612 165.054574,148.711433 C165.681945,147.646767 166.370932,146.610118 167.037514,145.562263 C167.166349,145.354933 167.267176,145.130793 167.071123,144.91786 C166.863866,144.688116 166.617399,144.5032 166.270105,144.643288 C166.163676,144.688116 166.062848,144.749754 165.962021,144.805789 C162.315428,146.839862 158.444774,148.274359 154.389269,149.204541 C150.249742,150.157137 146.065403,150.442916 141.841852,149.832134 C137.007736,149.131696 132.677757,147.260125 128.840712,144.251042 C127.978077,143.573018 127.177059,142.805338 126.348033,142.088089 C126.174386,141.942398 125.978332,141.830328 125.866302,141.757482 L125.866302,141.757482 Z M74.0409887,32.2705882 C75.004451,31.7046342 75.665431,30.9873855 76.0351317,30.040393 C77.1442337,27.1826052 75.559002,23.9774001 72.6069981,23.1985128 C71.7555663,22.9743726 70.8537207,22.8847165 69.9742812,22.8735095 C67.2575414,22.834285 64.5464031,22.856699 61.8296632,22.8623025 C61.6056022,22.8623025 61.3759397,22.8847165 61.1630817,22.8959235 C60.9950359,23.7364493 61.0342466,42.2504315 61.2134954,42.8163856 L61.9528968,42.8163856 C64.4791848,42.8163856 67.0054727,42.8219891 69.5317607,42.8107821 C70.2319514,42.8051786 70.9377436,42.7939716 71.6323327,42.709919 C73.5088437,42.4801753 75.0828724,41.712495 76.0967485,40.0314434 C76.7409239,38.9555703 76.9817895,37.7676271 76.9089697,36.5292524 C76.8081422,34.7137166 76.0015226,33.3184438 74.3546741,32.4611074 C74.2762527,32.4218829 74.2034329,32.3658478 74.0409887,32.2705882 L74.0409887,32.2705882 Z M99.6175537,22.7614394 L99.6175537,42.676298 L103.566629,42.676298 L103.566629,35.3301022 C103.874713,35.3132917 104.098774,35.2908777 104.328437,35.2908777 C105.168665,35.2852742 106.014496,35.3188952 106.854725,35.2740672 C107.375666,35.2460497 107.64454,35.4309653 107.874202,35.8960563 C108.871274,37.9581463 109.929962,39.9978223 110.927034,42.0599124 C111.156696,42.5474173 111.408765,42.7715576 111.98012,42.7379365 C112.954786,42.6819015 113.940654,42.7267295 114.926523,42.721126 C115.10017,42.721126 115.273817,42.6931085 115.537089,42.6706945 C114.248738,40.0146329 112.999598,37.4370203 111.767262,34.8874253 C111.845684,34.7865622 111.86809,34.7417342 111.901699,34.7193201 C111.98012,34.6632851 112.064143,34.618457 112.142565,34.573629 C114.556822,33.2624087 115.609909,31.1835082 115.481074,28.488222 C115.335434,25.5351746 113.587758,23.4898951 110.742183,22.9407516 C110.058797,22.8062674 109.347403,22.7726464 108.647213,22.7670429 C105.908067,22.7502324 103.174522,22.7614394 100.435376,22.7614394 L99.6175537,22.7614394 Z M97.797058,72.0778914 L97.797058,70.178303 L97.797058,68.4244058 L97.797058,66.597663 L97.797058,64.7709202 L97.797058,62.9441774 C97.797058,62.3614128 97.7802534,61.7730447 97.8026595,61.1902802 C97.8194641,60.6075156 97.7242381,60.013544 97.8698778,59.3467269 C98.2731876,59.99113 98.6036776,60.5514805 98.9677768,61.0894171 C101.118763,64.2722082 103.27535,67.4437923 105.437539,70.6209799 C105.762427,71.1028814 106.014496,71.7584916 106.479422,71.9938388 C106.966755,72.2459965 107.661344,72.1003054 108.266309,72.1115124 C108.776048,72.1227194 109.280185,72.1059089 109.761916,72.1003054 C109.935564,71.2317621 109.901954,52.9139025 109.73951,52.3703625 L106.188143,52.3703625 L106.188143,65.0398885 C106.070511,64.9614394 106.020097,64.9502324 105.997691,64.9166113 C105.067838,63.4821139 104.154789,62.042013 103.208132,60.6243261 C101.499666,58.0747311 99.7631934,55.5475501 98.0771342,52.9867481 C97.7354412,52.4656221 97.3657405,52.2582924 96.7607758,52.3087239 C96.1334049,52.3591555 95.494831,52.3143274 94.8674602,52.319931 C94.6377976,52.3255345 94.4081351,52.353552 94.2008787,52.364759 C94.0272314,53.3453725 94.0832466,71.5567654 94.2568939,72.0778914 L97.797058,72.0778914 Z M81.3733854,42.676298 L95.4220112,42.676298 C95.5788539,41.7797371 95.5396432,39.5831629 95.3435898,39.0284159 L85.2328364,39.0284159 C85.2048288,37.4258133 85.1992273,35.8960563 85.2328364,34.2878502 L90.8175573,34.2878502 C90.9687985,33.4921524 90.9519939,31.2115257 90.7839481,30.6063471 L85.2272349,30.6063471 C85.2216334,29.2110742 85.1600166,27.8942504 85.2720471,26.5269951 C86.9357002,26.5269951 88.5265334,26.5325986 90.1117651,26.5213916 C91.6913953,26.5101846 93.276627,26.5662196 94.8898663,26.482167 L94.8898663,22.9071305 L81.3733854,22.9071305 L81.3733854,42.676298 Z M21.9412007,52.4544151 L21.9412007,72.1115124 C22.8262417,72.2796176 35.4184709,72.240393 35.9506158,72.0610809 C35.9506158,71.5175408 35.9618188,70.9571903 35.9450142,70.3968397 C35.9282097,69.8196787 36.0290371,69.2369141 35.8553898,68.6093215 L30.7860093,68.6093215 C29.1055517,68.603718 27.4306956,68.614925 25.7782456,68.603718 C25.6158014,67.7687956 25.6382075,64.3730713 25.8118548,63.7790997 C27.6211475,63.7622892 29.4584478,63.7903067 31.3629665,63.7622892 C31.368568,62.529518 31.4021771,61.3920064 31.3405604,60.2152702 C29.4192371,60.1088036 27.5763353,60.2488912 25.7110273,60.1256141 L25.7110273,56.0238481 C26.0415173,56.0014341 26.3439997,55.9734165 26.6408805,55.9734165 C29.2399883,55.9734165 31.8390961,55.9734165 34.4326024,55.967813 C34.7294832,55.967813 35.0207626,55.9285885 35.334448,55.9061745 L35.334448,52.4544151 L21.9412007,52.4544151 Z M158.864888,72.1787545 C156.332999,65.544204 153.84032,58.993706 151.342039,52.4376046 L147.650634,52.4376046 C147.028865,54.0738282 146.401494,55.7100518 145.774123,57.3462754 C145.152354,58.9881025 144.524983,60.6299296 143.897612,62.2661532 C143.26464,63.9303944 142.626066,65.589032 142.004297,67.2532731 C141.39373,68.8782897 140.715946,70.4808923 140.178199,72.1563405 L144.194493,72.1563405 C144.631412,70.9571903 145.051526,69.7916611 145.477242,68.626132 C145.6901,68.0545744 145.695702,68.0433674 146.272659,68.0433674 C148.451652,68.0377639 150.625044,68.0489709 152.804038,68.0377639 C153.218551,68.0321604 153.442612,68.1778515 153.577048,68.5757004 C153.901937,69.5002788 154.266036,70.4136502 154.618932,71.3326251 C154.725361,71.6128004 154.848594,71.8873722 154.966226,72.1787545 L158.864888,72.1787545 Z M85.3336639,63.7903067 L85.3336639,60.2096667 C83.4347468,60.1200106 81.5750403,60.2376842 79.7041309,60.1424246 L79.7041309,56.0238481 C80.0514254,56.0014341 80.3483063,55.9734165 80.6451871,55.9734165 C83.2442949,55.9734165 85.8434027,55.9734165 88.4425105,55.967813 C88.7337898,55.967813 89.0250692,55.922985 89.3555592,55.889364 C89.3667622,54.6958173 89.3835668,53.5863232 89.3499576,52.4936396 C88.2576602,52.3255345 76.5056598,52.3815695 76.0015226,52.5496747 C75.9903195,52.7233833 75.9623119,52.908299 75.9623119,53.0932147 L75.9623119,71.5007303 C75.9623119,71.7248705 76.0071241,71.9434073 76.0295302,72.150737 C77.42431,72.3020316 89.4787927,72.2347895 90.0277422,72.0666844 C90.0277422,71.5231443 90.0445468,70.9627938 90.0277422,70.4080467 C90.0053361,69.8308857 90.1061636,69.2481211 89.9381178,68.6093215 L89.0866859,68.6093215 C86.229908,68.6093215 83.37313,68.6093215 80.516352,68.603718 C80.2474788,68.603718 79.9786056,68.5700969 79.7097324,68.5532864 L79.7097324,63.7903067 L85.3336639,63.7903067 Z M177.663607,67.2364626 C177.697217,67.4101713 177.70842,67.5222414 177.74763,67.628708 C178.341392,69.2761386 179.377674,70.5929624 180.884485,71.4615058 C183.545209,72.9968663 186.323566,72.9912628 189.118727,71.8425442 C190.429484,71.3046076 191.342533,70.3071836 191.941896,69.0351879 C193.09581,66.575249 192.395619,63.7454787 190.222227,62.1316691 C189.376397,61.5040765 188.429739,61.044589 187.427066,60.6915682 C186.390784,60.3273403 185.3489,59.9743195 184.329423,59.5708671 C183.836488,59.3691409 183.343554,59.1169831 182.92344,58.7975833 C182.139226,58.2092152 182.11682,57.0829106 182.822612,56.399283 C183.164305,56.0630726 183.58442,55.8557429 184.054948,55.7716903 C184.777545,55.6428097 185.500142,55.6876378 186.217137,55.8389324 C187.034959,56.0126411 187.667932,56.4609215 188.116054,57.1669632 C188.239287,57.3630859 188.362521,57.5536051 188.496958,57.7665383 C189.566849,57.3854999 190.619936,57.1053247 191.611406,56.6906653 C191.308923,55.1777188 190.020573,53.8160669 189.090719,53.2781304 C186.838906,51.9669101 184.458258,51.8380295 182.055203,52.6953658 C179.332862,53.6703758 178.027707,56.0966937 178.582258,58.8872394 C178.907146,60.5402735 179.926624,61.6665781 181.399825,62.3446023 C182.710582,62.9497809 184.082956,63.4204754 185.444126,63.9247909 C186.30116,64.2385872 187.152592,64.54678 187.88079,65.1351481 C189.051509,66.076537 188.704214,68.2002656 187.387856,68.7269951 C186.542025,69.0688089 185.684992,69.2145001 184.783146,69.0800159 C183.427577,68.8782897 182.430506,68.1106095 181.663097,67.0067189 C181.444637,66.6873191 181.237381,66.3511088 181.007718,66.0036914 C179.859405,66.4295578 178.772709,66.8274067 177.663607,67.2364626 L177.663607,67.2364626 Z M56.7546812,67.2252556 C56.7714858,67.4045678 56.7602827,67.4774134 56.7826888,67.5390519 C57.3652475,69.2537246 58.4407403,70.5985659 59.9923629,71.4839198 C62.6362829,73.0024698 65.3978349,72.9688488 68.1649885,71.8481477 C69.4589409,71.3270216 70.3607864,70.3520117 70.9657512,69.113637 C72.1756807,66.6593016 71.4866931,63.7622892 69.2964966,62.1372726 C68.4450648,61.50968 67.498407,61.044589 66.5013354,60.6971717 C65.4426471,60.3217368 64.3783573,59.957509 63.3364736,59.5484531 C62.88275,59.3691409 62.434628,59.1393972 62.0425212,58.8536184 C61.1574802,58.2036117 61.1294726,57.0044616 61.9865059,56.3208339 C62.3057929,56.0686761 62.7147042,55.889364 63.106811,55.7885009 C63.8238063,55.6091887 64.5520046,55.6820343 65.2689998,55.8389324 C66.081221,56.0126411 66.7253964,56.4497145 67.1735185,57.1613597 C67.296752,57.3518789 67.4199856,57.5423981 67.5656253,57.7665383 C68.618712,57.407914 69.6325881,57.0717036 70.6072536,56.7410968 C70.6296597,56.6234232 70.6464642,56.5785951 70.6464642,56.5337671 C70.6408627,56.4609215 70.6240581,56.3936795 70.601652,56.3264374 C70.1367254,55.0208206 69.3245042,53.9785686 68.1369809,53.2725269 C65.9187768,51.9613066 63.5549331,51.8492365 61.1686832,52.6785553 C58.4743495,53.6199442 57.1691941,55.9061745 57.6117146,58.7023237 C57.8805878,60.4169964 58.9000654,61.6105431 60.4180788,62.3221883 C61.7456403,62.9441774 63.1628263,63.3868543 64.523997,63.9416014 C65.2746014,64.2497942 66.0364088,64.569194 66.730998,64.9894569 C67.4423917,65.4153233 67.7448741,66.121365 67.6440466,66.9787014 C67.5152115,68.0545744 66.9046453,68.7157881 65.7731371,68.9791528 C63.6781666,69.4722613 61.8744754,68.7438056 60.675749,66.9282698 C60.4852971,66.6368875 60.2948453,66.3455052 60.0763858,66.0036914 C58.9560807,66.4127473 57.8693848,66.8161997 56.7546812,67.2252556 L56.7546812,67.2252556 Z M38.75698,67.2476696 C39.3675463,69.1864825 40.4990544,70.6097729 42.168309,71.5511619 C44.4369268,72.8343646 46.8455827,72.9184172 49.3046524,72.195565 C51.8197373,71.4559023 53.3377507,69.6515735 53.5730148,67.0347364 C53.735459,65.1743726 53.1529003,63.57177 51.6572931,62.3670163 C50.7386429,61.6273536 49.6967592,61.1062276 48.5876571,60.7027752 C47.467352,60.2993228 46.3414454,59.9014739 45.2323434,59.470004 C44.823432,59.3075023 44.4313253,59.0777586 44.0728276,58.8256008 C43.5462842,58.450166 43.372637,57.917833 43.490269,57.2790333 C43.6359087,56.5281636 44.2856856,55.9397955 45.1595236,55.7772939 C45.9045265,55.6428097 46.6495293,55.6820343 47.3889307,55.8501394 C48.1787458,56.0294516 48.7949136,56.4609215 49.2318326,57.1445492 C49.3550661,57.3350684 49.4782997,57.5255876 49.6295409,57.7609348 C50.6882292,57.407914 51.7189098,57.0604966 52.7775981,56.7074758 C52.3574837,55.1889258 51.5116534,54.0626212 50.2457087,53.3005444 C47.9938954,51.9444961 45.579638,51.8380295 43.1541775,52.7121763 C40.7119124,53.5919267 39.5019829,55.5139291 39.6196149,58.0971451 C39.7092393,60.0975966 40.7567246,61.5040765 42.510002,62.3333953 C43.8151575,62.9497809 45.2043358,63.3812508 46.5487019,63.9303944 C47.2993063,64.2329837 48.0779183,64.524366 48.7613044,64.9558359 C49.7751805,65.600239 50.0104446,66.7265436 49.4895027,67.8024167 C49.1366066,68.5252689 48.4812281,68.8334617 47.7586314,68.9847563 C45.6412548,69.4442438 43.927188,68.7269951 42.7340631,66.9170628 C42.5436112,66.6256805 42.3643624,66.3342982 42.1515044,66.0036914 C41.0143948,66.4183508 39.9220973,66.8218032 38.75698,67.2476696 L38.75698,67.2476696 Z M37.2837788,38.0758199 C36.0570448,37.599522 34.9367397,37.1680521 33.8500437,36.7477891 C33.4411324,37.2577081 33.127447,37.7284026 32.7465432,38.131855 C31.1501085,39.8073031 28.6350236,39.6560085 27.2402437,37.8124552 C26.752911,37.1736556 26.4000149,36.4620104 26.187157,35.6831231 C25.7278319,34.0132784 25.6718166,32.3210198 25.9518929,30.6063471 C26.1087356,29.6929757 26.4616317,28.8580534 26.9097537,28.0567521 C28.2821275,25.5912097 31.9063144,25.7369008 33.1218454,27.6869207 C33.2954927,27.9614925 33.5083507,28.2080467 33.7268102,28.4938255 C34.8807244,27.967096 35.995428,27.4515735 37.1437407,26.924844 C36.4939637,25.38388 35.4800876,24.2855929 34.1245185,23.5067056 C33.0546271,22.8847165 31.8783068,22.5821272 30.6515727,22.5036781 C28.9038968,22.391608 27.2458453,22.6829903 25.761441,23.6804143 C24.1033895,24.8011154 23.0503027,26.3644934 22.4397365,28.2472713 C21.6723275,30.6287611 21.4986802,33.055079 21.9355992,35.5262249 C22.1932693,37.0167574 22.7030081,38.4120303 23.5264324,39.6896295 C24.2994429,40.8831762 25.3357251,41.7685301 26.6408805,42.3288806 C28.4725793,43.1189749 30.3546919,43.208631 32.2704136,42.7267295 C34.7518893,42.1047404 36.2250905,40.3844642 37.2837788,38.0758199 L37.2837788,38.0758199 Z M39.4235615,22.856699 C39.6532241,23.2489444 39.7876607,23.4898951 39.9333004,23.7308458 C42.0730831,27.2778648 44.2072642,30.8248838 46.35825,34.3662993 C46.5879126,34.7417342 46.6943415,35.117169 46.68874,35.5542425 C46.677537,37.6611605 46.6831385,39.7680786 46.68874,41.8749967 C46.68874,42.1439649 46.7167476,42.4129332 46.7279507,42.6706945 L50.5705971,42.6706945 L50.5705971,41.8637897 C50.5705971,39.8073031 50.5874017,37.7452131 50.5649956,35.6831231 C50.5593941,35.1451866 50.6938307,34.6969061 50.973907,34.2374187 C53.1304942,30.7016067 55.2646754,27.1489842 57.3988566,23.6019652 C57.5276917,23.3946355 57.6341207,23.1760988 57.807768,22.856699 C56.5810339,22.856699 55.4831349,22.89032 54.3908375,22.845492 C53.7858727,22.8174744 53.4273751,22.9967866 53.1080881,23.5459302 C51.7917297,25.7817289 50.4137544,27.98951 49.0637868,30.2028947 C48.9349517,30.4102244 48.789312,30.6063471 48.6212663,30.8585048 C48.4364159,30.5839331 48.3075809,30.3934139 48.1899488,30.1916877 C46.9576132,28.1800292 45.7308792,26.1571637 44.492942,24.1455052 C44.2352719,23.7252423 44.0392185,23.1760988 43.6639163,22.9575621 C43.2830126,22.7446289 42.711657,22.867906 42.2243242,22.8623025 C41.3392832,22.8510955 40.4542422,22.856699 39.4235615,22.856699 L39.4235615,22.856699 Z M123.082344,72.1675475 L123.082344,68.8558757 L123.082344,65.6954986 L123.082344,62.4678794 C123.082344,61.4144204 123.076742,60.3609614 123.087945,59.3075023 C123.099148,58.2428363 123.037532,57.1725667 123.132757,56.0630726 C125.026073,56.0294516 126.840967,56.0742796 128.695072,56.0350551 C128.734283,54.7854734 128.790298,53.6311512 128.672666,52.4712256 C128.515823,52.4432081 128.426199,52.4151905 128.336575,52.4151905 C123.586481,52.4151905 118.836387,52.409587 114.091895,52.4151905 C113.996669,52.4151905 113.907045,52.4376046 113.811819,52.4544151 C113.795015,52.4544151 113.77821,52.4824326 113.761405,52.4936396 L113.710992,52.5440712 L113.710992,56.0518656 C114.685657,56.0518656 115.61551,56.0462621 116.539762,56.0518656 C117.469615,56.0518656 118.393867,56.0630726 119.39654,56.0686761 L119.39654,60.1536317 L119.39654,64.1601381 L119.39654,68.161041 C119.402142,69.4834683 119.407743,70.8058956 119.407743,72.1675475 L123.082344,72.1675475 Z M175.826307,72.161944 C176.033564,71.4222812 176.005556,69.1304475 175.76469,68.5420794 L166.432549,68.5420794 C166.410143,68.1778515 166.376534,67.8752622 166.376534,67.5782765 C166.376534,62.8321073 166.376534,58.0803346 166.370932,53.3285619 C166.370932,53.0371797 166.337323,52.7457974 166.314917,52.4544151 L162.640316,52.4544151 L162.640316,72.161944 L175.826307,72.161944 Z M136.346756,52.4544151 L132.711366,52.4544151 L132.711366,72.1115124 C133.489978,72.2684106 135.84822,72.240393 136.346756,72.0778914 L136.346756,52.4544151 Z" id="Fill-254" fill="#262841"></path>
                <path d="M125.544728,141 C125.657135,141.077765 125.853847,141.183303 126.028078,141.333278 C126.86551,142.04427 127.663599,142.799699 128.529132,143.471809 C132.37907,146.454644 136.723598,148.309889 141.573957,149.004218 C145.817318,149.609672 150.010097,149.326386 154.163533,148.387654 C158.232664,147.460031 162.121944,146.038047 165.775169,144.021717 C165.876336,143.966171 165.977502,143.90507 166.084288,143.860633 C166.43275,143.721767 166.680045,143.910625 166.887998,144.138364 C167.08471,144.343886 166.989164,144.566071 166.854276,144.771592 C166.185455,145.815862 165.494152,146.837913 164.864673,147.898847 C161.464363,153.564567 159.053235,159.646883 157.288446,165.984713 C155.950803,170.778356 155.017826,175.655319 154.410828,180.593382 C153.904997,184.770462 153.61836,188.953096 153.640841,193.163503 C153.640841,193.28015 153.646461,193.396798 153.6296,193.50789 C153.567776,193.974479 153.123769,194.152227 152.758447,193.852277 C152.612318,193.741184 152.505531,193.5801 152.387504,193.43568 C147.655172,187.819952 143.557939,181.765408 139.904714,175.41647 C133.868462,164.907115 128.97876,153.89229 125.224369,142.394211 C125.128823,142.105371 125.038897,141.810976 125.005175,141.51658 C124.965833,141.199967 125.151304,141.011109 125.544728,141" id="Fill-256" fill="#90C568"></path>
                <path d="M97.7528007,71.9340446 L94.1638033,71.9340446 C93.9877607,71.414412 93.9309728,53.0521795 94.1070154,52.063748 C94.3171307,52.0524517 94.5499612,52.0242108 94.7827918,52.0185626 C95.4188166,52.0129144 96.0661991,52.0580999 96.7022239,52.0072662 C97.3155336,51.9564326 97.6903339,52.1710635 98.0367403,52.690696 C99.7460571,55.2719142 101.512162,57.8192433 103.238515,60.3891651 C104.198231,61.8181545 105.123874,63.2697368 106.066554,64.7156708 C106.089269,64.7495599 106.140378,64.7665044 106.259633,64.8399307 L106.259633,52.0693962 L109.859988,52.0693962 C110.024673,52.6172697 110.058746,71.0811694 109.882703,71.9566373 C109.394327,71.9622855 108.883235,71.97923 108.366465,71.9679336 C107.753156,71.9566373 107.048985,72.10349 106.55493,71.8493219 C106.08359,71.6120983 105.828045,70.9512613 105.498675,70.4655178 C103.30666,67.2629999 101.120325,64.0661301 98.9396685,60.857964 C98.5705469,60.3157387 98.2354981,59.7509207 97.8323038,59.1013801 C97.6789763,59.7791616 97.7755158,60.3722205 97.7584794,60.9596312 C97.7414431,61.5470419 97.7528007,62.1401008 97.7528007,62.7275115 L97.7528007,64.5688181 L97.7528007,66.4101247 L97.7528007,68.2514313 L97.7528007,70.0193116 L97.7528007,71.9340446 Z" id="Fill-258" fill="#90C568"></path>
                <path d="M22,52 L35.3761542,52 L35.3761542,55.4926609 C35.0628691,55.5153405 34.7719615,55.5606998 34.4754596,55.5606998 C31.8796689,55.5663697 29.2838782,55.5606998 26.6936819,55.5663697 C26.3915855,55.5663697 26.0950836,55.5947192 25.7650154,55.6117289 L25.7650154,59.7677686 C27.6279427,59.8925065 29.4684926,59.745089 31.3873638,59.8528172 C31.4489019,61.049167 31.4097413,62.1944876 31.4041469,63.4475364 C29.5076533,63.470216 27.6726978,63.4418665 25.8601198,63.4645461 C25.6922885,64.065556 25.669911,67.4958479 25.8321479,68.3406637 C27.482489,68.3520035 29.1552075,68.3463336 30.8335205,68.3463336 L35.8964312,68.3463336 C36.0698569,68.9870327 35.9691581,69.5767027 35.9859412,70.155033 C36.0027244,70.7220234 35.9915356,71.2890138 35.9915356,71.8446644 C35.4600698,72.0204314 22.8839115,72.0601208 22,71.8956935 L22,52 Z" id="Fill-260" fill="#90C568"></path>
                <path d="M159,72 L155.035971,72 C154.916367,71.704797 154.791067,71.426625 154.682854,71.142776 C154.324041,70.2117513 153.959532,69.2864036 153.629197,68.349702 C153.486811,67.9466364 153.258993,67.7990349 152.83753,67.8047119 C150.627698,67.8160659 148.41217,67.8047119 146.196643,67.8103889 C145.610012,67.8103889 145.604317,67.8217428 145.393585,68.4007948 C144.955036,69.5816066 144.527878,70.7624184 144.083633,71.9772921 L140,71.9772921 C140.552458,70.2798751 141.235911,68.6619359 141.856715,67.0156117 C142.494604,65.3238717 143.138189,63.6434857 143.781775,61.9574227 C144.419664,60.2997445 145.057554,58.6363894 145.695444,56.9787113 C146.327638,55.3210332 146.965528,53.6576781 147.603417,52 L151.351019,52 C153.891187,58.6420664 156.431355,65.2784559 159,72 M146.806055,64.3417542 C148.645683,64.3474312 150.320144,64.38717 152.108513,64.3133693 C151.248501,61.9801306 150.422662,59.7434005 149.545564,57.364746 C148.605815,59.7547545 147.734412,61.9744536 146.806055,64.3417542" id="Fill-262" fill="#90C568"></path>
                <path d="M85.3235367,63.4884201 L79.7252368,63.4884201 L79.7252368,68.2891135 C79.9981888,68.3060571 80.2655703,68.3399444 80.5329518,68.3399444 C83.3683096,68.3455922 86.2092379,68.3455922 89.0501662,68.3455922 L89.8968742,68.3455922 C90.0695581,68.9894499 89.96929,69.5768289 89.9860014,70.15856 C90.0027127,70.7176996 89.9915718,71.282487 89.9915718,71.8303308 C89.4456679,71.9997671 77.4524942,72.0675416 76.0710232,71.915049 C76.0487414,71.7060776 76.0041778,71.4858105 76.0041778,71.2598955 C75.9986074,65.0754728 75.9986074,58.8910502 76.0041778,52.7066275 C76.0041778,52.5202477 76.0264596,52.3338678 76.043171,52.1587837 C76.5445113,51.9893474 88.2257399,51.9328687 89.3119772,52.1023049 C89.3509703,53.2036405 89.3286885,54.3219196 89.3231181,55.5249169 C88.9944617,55.5588042 88.7047984,55.6039872 88.4151351,55.6039872 C85.8304474,55.6096351 83.2457597,55.6096351 80.661072,55.6096351 C80.3658383,55.6096351 80.0650342,55.6378744 79.7252368,55.654818 L79.7252368,59.8116537 C81.5801959,59.9076676 83.4295845,59.7890622 85.3235367,59.8794282 L85.3235367,63.4884201 Z" id="Fill-264" fill="#90C568"></path>
                <path d="M178,66.7107443 C179.121894,66.3118458 180.221124,65.9184117 181.382681,65.5085845 C181.614993,65.847375 181.82464,66.1697724 182.045619,66.4867054 C182.821879,67.5577204 183.830451,68.3063381 185.201655,68.5085195 C186.113903,68.6396642 186.980821,68.4921264 187.842073,68.1642646 C189.173615,67.6506146 189.519249,65.5741569 188.335027,64.656144 C187.598429,64.0878503 186.737177,63.7873104 185.870259,63.4813061 C184.499055,62.9895135 183.105186,62.530507 181.779311,61.9403559 C180.294784,61.2737037 179.257882,60.1753668 178.929246,58.5688443 C178.368299,55.8475918 179.688508,53.4815229 182.442248,52.5307239 C184.873019,51.6946764 187.281126,51.8203568 189.558912,53.0935532 C190.505156,53.6235963 191.8027,54.945972 192.108671,56.4268142 C191.105766,56.8311771 190.040533,57.1043952 188.958301,57.4759718 C188.822314,57.2628617 188.697659,57.0770734 188.573004,56.891285 C188.119714,56.2027754 187.479441,55.7656264 186.652185,55.5962312 C185.92692,55.4486934 185.201655,55.4049785 184.465058,55.5306588 C183.989103,55.6126243 183.569809,55.8093413 183.218509,56.137203 C182.504576,56.8093196 182.52724,57.9021921 183.320499,58.4814145 C183.745459,58.7928832 184.244079,59.0387795 184.742698,59.2300321 C185.773935,59.6289306 186.827835,59.9731854 187.87607,60.328369 C188.890308,60.6671595 189.847884,61.1207015 190.70347,61.7327101 C192.90193,63.3009821 193.610197,66.0604851 192.442973,68.4593402 C191.836697,69.7052148 190.913117,70.672407 189.587242,71.1969858 C186.759842,72.3171801 183.94944,72.3281088 181.258027,70.8308735 C179.733837,69.9838973 178.685602,68.6997722 178.084992,67.0932496 C178.045329,66.9894267 178.033997,66.8746751 178,66.7107443" id="Fill-266" fill="#90C568"></path>
                <path d="M57,66.6983123 C58.1241733,66.2994511 59.2313136,65.9115175 60.3611645,65.5071924 C60.5882702,65.8404874 60.7756324,66.1246078 60.9686723,66.4087281 C62.1893655,68.1844804 64.0175665,68.8893174 66.1410049,68.4084984 C67.2878887,68.1516973 67.9067518,67.5069626 68.0373376,66.4579028 C68.1395351,65.6219333 67.8329424,64.9389517 67.1118818,64.518235 C66.4078541,64.108446 65.6356947,63.7970064 64.8692129,63.4964944 C63.4895457,62.955573 62.0587797,62.5239286 60.7131784,61.9174409 C59.1688595,61.2235316 58.1355286,60.0597309 57.8630017,58.3877918 C57.4201456,55.666793 58.7430363,53.4320771 61.4739825,52.5141498 C63.8869807,51.7054995 66.2886236,51.8147766 68.5369701,53.098782 C69.7406304,53.7817637 70.5582109,54.8035042 71.0351329,56.0711181 C71.0578435,56.1366844 71.0691988,56.2077144 71.0748764,56.2732807 C71.0805541,56.3169915 71.0635212,56.3607023 71.0408106,56.4754432 C70.0472231,56.7978106 69.0195698,57.1311056 67.9521729,57.4753284 C67.8102318,57.2567742 67.6796461,57.0710032 67.5604156,56.8852322 C67.1062041,56.1913229 66.4532752,55.7706062 65.6243394,55.5957629 C64.9032787,55.4482389 64.1595075,55.3772088 63.4384469,55.5465882 C63.0353343,55.6449376 62.626544,55.8252447 62.3029184,56.0711181 C61.434239,56.7322443 61.4626272,57.9069727 62.3596948,58.5353158 C62.7571298,58.8139724 63.2056636,59.0379903 63.6655526,59.2128336 C64.7272718,59.6116949 65.8003463,59.9723092 66.8734208,60.3329235 C67.8897188,60.6771463 68.8492405,61.1251822 69.7065645,61.7425976 C71.9265229,63.3216511 72.6248729,66.1464632 71.4041797,68.5396308 C70.7853167,69.7471424 69.8768938,70.6978528 68.5653583,71.2059911 C65.7549252,72.3042256 62.9558473,72.3315449 60.2759999,70.8563045 C58.7032928,69.9875519 57.6188631,68.6762272 57.0283882,67.009752 C57.0056776,66.9441857 57.0113553,66.8731556 57,66.6983123" id="Fill-268" fill="#90C568"></path>
                <path d="M39,66.7323659 C40.1831364,66.3113948 41.2813586,65.9232267 42.4305294,65.51319 C42.6456451,65.8357522 42.8267951,66.1255115 43.0192671,66.4043365 C44.2307082,68.1702281 45.9629557,68.8700242 48.0971299,68.4271845 C48.8273911,68.2741041 49.489721,67.9788776 49.8463602,67.2681473 C50.3728276,66.2239203 50.1350681,65.1250218 49.116099,64.4962988 C48.4254644,64.0753278 47.6385938,63.7910356 46.8743669,63.490342 C45.5214024,62.9600278 44.1118284,62.5390567 42.7928295,61.9322023 C41.0266164,61.1230632 39.9623597,59.756274 39.8717847,57.8044991 C39.752905,55.2841398 40.9756679,53.4034379 43.4438376,52.5505615 C45.8950244,51.6976851 48.3348893,51.7960939 50.6105871,53.1246129 C51.8899594,53.8681463 52.7447613,54.9670447 53.1693317,56.4486442 C52.1050751,56.7930751 51.0634622,57.1320388 49.9935446,57.4764697 C49.8406993,57.2468491 49.7161586,57.0609658 49.585957,56.8696153 C49.1444037,56.2026222 48.5217004,55.7871182 47.7235079,55.6121692 C46.9762639,55.4481545 46.2233589,55.4098844 45.4704539,55.5410962 C44.5873474,55.6941766 43.9363393,56.2736952 43.7891549,57.0062942 C43.6646142,57.6240829 43.8401033,58.1489299 44.3722317,58.5097623 C44.7401927,58.7612515 45.1364585,58.9854049 45.5497071,59.1384853 C46.6705731,59.5649235 47.808422,59.9530916 48.9406099,60.3467269 C50.055815,60.734895 51.1087497,61.2488078 52.0428048,61.9704724 C53.5542756,63.140444 54.1373524,64.7095179 53.9731852,66.5191468 C53.7410866,69.072309 52.2013111,70.8382006 49.6595492,71.5598652 C47.1743967,72.2596613 44.7401927,72.1776539 42.4531731,70.9311422 C40.7605522,70.0071928 39.6227034,68.6240021 39,66.7323659" id="Fill-270" fill="#90C568"></path>
                <path d="M123.353154,72 L119.685689,72 C119.680098,70.6214504 119.674508,69.2826121 119.674508,67.9437738 C119.668917,66.5935895 119.674508,65.2434051 119.674508,63.8932207 L119.674508,59.8369945 L119.674508,55.7013458 C118.668191,55.6956727 117.745734,55.6843266 116.823277,55.6843266 C115.89523,55.6786536 114.967182,55.6843266 114,55.6843266 L114,52.1330014 C114.016772,52.1159822 114.027953,52.0989631 114.044725,52.081944 C114.061497,52.0705979 114.078269,52.0422327 114.100632,52.0422327 C114.190082,52.0252135 114.285123,52.0025214 114.374573,52.0025214 C119.115443,51.9968483 123.856312,52.0025214 128.591591,52.0025214 C128.681041,52.0025214 128.776082,52.0308866 128.92703,52.0592518 C129.044433,53.2335718 128.994118,54.4022188 128.954983,55.6673075 C127.104479,55.7070188 125.293109,55.6616345 123.397879,55.6956727 C123.308429,56.8189354 123.364335,57.9024867 123.353154,58.980365 C123.347563,60.0468972 123.353154,61.1134294 123.353154,62.1799615 L123.353154,65.4476347 L123.353154,68.6472312 L123.353154,72 Z" id="Fill-272" fill="#90C568"></path>
                <path d="M175.866327,72 L163,72 L163,52 L166.58946,52 C166.60585,52.2900199 166.644094,52.5857265 166.644094,52.881433 C166.649557,57.7037248 166.644094,62.5260165 166.649557,67.3483082 C166.649557,67.6497015 166.682337,67.9510947 166.704191,68.3264146 L175.80623,68.3264146 C176.035693,68.9178277 176.068474,71.2436736 175.866327,72" id="Fill-274" fill="#90C568"></path>
                <path d="M137,52 L137,71.8606408 C136.451464,72.0251064 133.856703,72.0534626 133,71.8946682 L133,52 L137,52 Z" id="Fill-276" fill="#90C568"></path>
                <path d="M147,63.9842261 C147.875403,61.6144765 148.6971,59.392481 149.583244,57 C150.410311,59.3811153 151.183673,61.6201593 152,63.9558118 C150.313641,64.0296889 148.734694,63.9899089 147,63.9842261" id="Fill-280" fill="#262841"></path>
                <path d="M103,30.8848696 L103,25.0518745 C103.215552,25.034583 103.409548,25 103.603545,25 L107.995413,25 L108.130133,25 C110.350316,25.069166 111.568184,27.0692147 110.73831,29.2882889 C110.344928,30.331542 109.590496,30.9367441 108.572014,30.9713271 C106.750601,31.0289654 104.929189,30.9828547 103.102387,30.9770909 C103.086221,30.9713271 103.070054,30.9482718 103,30.8848696" id="Fill-282" fill="#262841"></path>
                <path d="M65,38.8848696 L65,33.0518745 C65.2156094,33.034583 65.4096579,33 65.6037064,33 L69.9967483,33 L70.1315042,33 C72.3522812,33.069166 73.5650842,35.0692147 72.7403782,37.2882889 C72.346891,38.331542 71.592258,38.9367441 70.5735035,38.9713271 C68.7516039,39.0289654 66.9297043,38.9828547 65.1024145,38.9770909 C65.0862438,38.9713271 65.0700731,38.9482718 65,38.8848696" id="Fill-284" fill="#262841"></path>
                <path d="M65,29.9049576 L65,25.0433587 C65.1862635,25.0270992 65.3565615,25 65.5321814,25 L69.3745312,25 L69.4916112,25 C71.4340733,25.0596183 72.4984362,26.72351 71.7693476,28.5770961 C71.4287515,29.444271 70.7688466,29.9483163 69.8747818,29.9754155 C68.2835593,30.0241941 66.6870151,29.9862552 65.0904708,29.9808354 C65.0745054,29.9808354 65.0638618,29.9537362 65,29.9049576" id="Fill-286" fill="#262841"></path>
            </g>
        </g>
    </g>
</svg>