<?xml version="1.0" encoding="UTF-8"?>
<svg width="1058px" height="282px" viewBox="0 0 1058 282" version="1.1" xmlns="http://www.w3.org/2000/svg" xmlns:xlink="http://www.w3.org/1999/xlink">
    <!-- Generator: Sketch 52.2 (67145) - http://www.bohemiancoding.com/sketch -->
    <title>ftm_horizontal_rgb_1819</title>
    <desc>Created with Sketch.</desc>
    <defs>
        <polygon id="path-1" points="0.06 0.718 1057.37 0.718 1057.37 281.94 0.06 281.94"></polygon>
    </defs>
    <g id="ftm_horizontal_rgb_1819" stroke="none" stroke-width="1" fill="none" fill-rule="evenodd">
        <polyline id="Fill-1" fill="#145458" points="450.666 164.533 399.859 164.533 399.859 226.272 364.151 226.272 364.151 64.12 479.329 64.12 479.329 93.151 399.859 93.151 399.859 135.502 450.666 135.502 450.666 164.533"></polyline>
        <path d="M528.551,173.75 L510.34,173.75 C496.989,173.75 489.61,178.588 489.61,188.022 C489.61,197.019 496.294,201.164 504.126,201.164 C515.182,201.164 528.551,193.101 528.551,179.502 L528.551,173.75 Z M507.806,150.245 L528.551,150.245 L528.551,144.951 C528.551,133.899 520.476,127.218 509.423,127.218 C500.9,127.218 488.223,131.591 488.223,144.038 L486.843,144.038 L458.285,136.895 C458.285,108.779 488.915,101.409 511.035,101.409 C540.292,101.409 563.091,114.779 563.091,149.791 L563.091,226.272 L533.146,226.272 L533.146,208.308 L532.228,208.308 C526.235,218.899 514.72,227.88 495.14,227.88 C472.786,227.88 454.367,215.907 454.367,189.878 C454.367,159.698 481.553,150.245 507.806,150.245 Z" id="Fill-2" fill="#145458"></path>
        <path d="M574.466,226.272 L609.026,226.272 L609.026,104.177 L574.466,104.177 L574.466,226.272 Z M574.466,93.525 L609.026,93.525 L609.026,64.12 L574.466,64.12 L574.466,93.525 Z" id="Fill-3" fill="#145458"></path>
        <path d="M696.889,102.801 L696.889,132.28 L693.653,132.28 C672.234,132.28 656.113,142.427 656.113,170.984 L656.113,226.272 L621.552,226.272 L621.552,104.177 L655.414,104.177 L655.414,127.218 L656.113,127.218 C662.328,106.943 677.769,102.801 694.348,102.801 L696.889,102.801" id="Fill-4" fill="#145458"></path>
        <polyline id="Fill-5" fill="#145458" points="770.964 226.272 770.964 93.151 722.821 93.151 722.821 64.12 855.057 64.12 855.057 93.151 806.678 93.151 806.678 226.272 770.964 226.272"></polyline>
        <path d="M890.395,173.75 L872.197,173.75 C858.832,173.75 851.46,178.588 851.46,188.022 C851.46,197.019 858.148,201.164 865.969,201.164 C877.033,201.164 890.395,193.101 890.395,179.502 L890.395,173.75 Z M869.657,150.245 L890.395,150.245 L890.395,144.951 C890.395,133.899 882.323,127.218 871.266,127.218 C862.743,127.218 850.073,131.591 850.073,144.038 L848.687,144.038 L820.133,136.895 C820.133,108.779 850.758,101.409 872.882,101.409 C902.137,101.409 924.952,114.779 924.952,149.791 L924.952,226.272 L894.999,226.272 L894.999,208.308 L894.089,208.308 C888.086,218.899 876.574,227.88 856.987,227.88 C834.648,227.88 816.203,215.907 816.203,189.878 C816.203,159.698 843.397,150.245 869.657,150.245 Z" id="Fill-6" fill="#145458"></path>
        <g id="Group-10">
            <mask id="mask-2" fill="white">
                <use xlink:href="#path-1"></use>
            </mask>
            <g id="Clip-8"></g>
            <polyline id="Fill-7" fill="#145458" mask="url(#mask-2)" points="1057.37 226.272 1015.21 226.272 989.412 188.022 965.213 226.272 923.054 226.272 967.284 162.467 924.91 104.177 966.373 104.177 990.792 141.723 1014.07 104.177 1055.52 104.177 1013.37 165.461 1057.37 226.272"></polyline>
            <path d="M84.782,34.593 C71.459,34.593 59.12,39.949 49.717,49.897 C37.435,62.89 32.378,77.389 34.259,94.224 C40.418,149.326 118.319,215.95 157.815,244.43 C197.319,215.95 275.227,149.321 281.389,94.221 C283.271,77.385 278.211,62.885 265.931,49.897 C255.683,39.056 241.937,33.656 227.247,34.725 C210.263,35.945 193.681,45.189 179.627,61.064 L212.832,100.597 C218.843,107.757 217.914,118.439 210.756,124.454 C203.59,130.462 192.917,129.536 186.898,122.379 L157.738,87.652 L128.152,122.455 C122.092,129.576 111.407,130.445 104.283,124.387 C97.157,118.33 96.295,107.644 102.35,100.518 L135.949,61.001 C121.912,45.164 105.36,35.945 88.404,34.725 C87.189,34.637 85.981,34.593 84.782,34.593 Z M157.815,282 C154.529,282 151.245,281.045 148.393,279.139 C142.765,275.367 10.451,185.813 0.609,98.02 C-2.414,71.043 5.829,47.027 25.11,26.631 C42.475,8.269 65.848,-0.85 90.836,0.949 C115.292,2.71 138.518,14.545 157.819,34.761 C177.129,14.541 200.357,2.707 224.822,0.949 C249.789,-0.887 273.177,8.269 290.538,26.631 C309.818,47.027 318.064,71.043 315.036,98.016 C305.192,185.813 172.866,275.367 167.237,279.139 C164.385,281.045 161.1,282 157.815,282 Z" id="Fill-9" fill="#65BDA1" mask="url(#mask-2)"></path>
        </g>
        <path d="M921.399,73.344 C921.586,67.792 925.824,65.167 931.412,65.167 C937.038,65.167 940.714,68.73 940.714,73.531 C940.714,79.269 936.551,83.245 931.3,86.696 L941.089,86.696 L941.089,91.496 L922.448,91.496 L922.448,87.333 C928.6,83.47 934.939,79.119 934.939,73.868 C934.939,71.205 933.438,69.593 931.037,69.593 C928.3,69.593 926.65,71.43 926.275,74.356 L925.749,74.356 L921.399,73.344" id="Fill-11" fill="#145458"></path>
        <path d="M952.975,87.671 C956.575,87.671 957.963,84.407 957.963,78.557 C957.963,72.706 956.575,69.443 952.975,69.443 C949.374,69.443 947.986,72.706 947.986,78.557 C947.986,84.407 949.374,87.671 952.975,87.671 Z M952.975,91.947 C944.649,91.947 942.211,85.758 942.211,78.557 C942.211,71.356 944.649,65.167 952.975,65.167 C961.302,65.167 963.739,71.356 963.739,78.557 C963.739,85.758 961.302,91.947 952.975,91.947 Z" id="Fill-12" fill="#145458"></path>
        <polyline id="Fill-13" fill="#145458" points="969.811 91.496 969.811 71.205 964.447 73.756 963.997 73.756 963.997 68.768 970.974 65.58 975.475 65.58 975.475 91.496 969.811 91.496"></polyline>
        <path d="M991.188,72.631 C991.188,70.381 989.612,69.293 987.775,69.293 C985.937,69.293 984.361,70.381 984.361,72.631 C984.361,74.881 985.937,76.006 987.775,76.006 C989.612,76.006 991.188,74.881 991.188,72.631 Z M983.311,83.883 C983.311,86.171 985.299,87.596 987.775,87.596 C990.25,87.596 992.237,86.171 992.237,83.883 C992.237,81.632 990.25,80.17 987.775,80.17 C985.299,80.17 983.311,81.632 983.311,83.883 Z M996.888,72.218 C996.888,74.356 995.575,76.906 992.725,77.694 C996.026,78.669 997.976,80.994 997.976,83.883 C997.976,89.584 992.95,91.947 987.775,91.947 C982.599,91.947 977.572,89.584 977.572,83.883 C977.572,80.994 979.523,78.669 982.823,77.694 C980.011,76.906 978.66,74.356 978.66,72.218 C978.66,66.93 983.611,65.167 987.775,65.167 C991.938,65.167 996.888,66.93 996.888,72.218 Z" id="Fill-14" fill="#145458"></path>
        <polygon id="Fill-15" fill="#145458" points="999.247 83.058 1020.03 83.058 1020.03 78.632 999.247 78.632"></polygon>
        <polyline id="Fill-16" fill="#145458" points="1026.47 91.496 1026.47 71.205 1021.11 73.756 1020.66 73.756 1020.66 68.768 1027.64 65.58 1032.14 65.58 1032.14 91.496 1026.47 91.496"></polyline>
        <path d="M1044.36,78.219 C1046.8,78.219 1048.9,77.019 1048.9,73.906 C1048.9,71.093 1046.91,69.63 1044.4,69.63 C1042.15,69.63 1040.05,71.093 1040.05,73.906 C1040.05,76.906 1041.85,78.219 1044.36,78.219 Z M1049.5,79.494 C1047.81,81.782 1045.37,82.532 1042.9,82.532 C1038.51,82.532 1034.31,80.019 1034.31,74.206 C1034.31,68.693 1038.88,65.167 1044.44,65.167 C1050.14,65.167 1055.01,68.355 1055.01,78.406 C1055.01,87.746 1050.29,91.947 1044.06,91.947 C1038.58,91.947 1035.21,89.808 1034.57,84.97 L1039.15,83.845 L1039.48,83.845 C1040.05,86.845 1042,87.821 1044.1,87.821 C1047.51,87.821 1049.5,84.783 1049.5,79.494 Z" id="Fill-17" fill="#145458"></path>
    </g>
</svg>