<svg xmlns="http://www.w3.org/2000/svg" xmlns:xlink="http://www.w3.org/1999/xlink" version="1.1" id="Layer_1" x="0px" y="0px" viewBox="0 0 475 240" preserveAspectRatio="xMinYMin meet" xml:space="preserve">
<path fill="#684D75" id="Agile" d="M46.2 1.1L0 110.1h24.2l9.9-24.3h45.6l9.9 24.3h24.8L68.1 1.1H46.2zM42.5 64.8l14.3-35.1 14.3 35.1H42.5zM175.7 68.4h23.9v15.5c-6 4.3-13.7 6.5-22.4 6.5 -19.1 0-32.7-14.5-32.7-34.3v-0.3c0-18.4 13.7-33.7 31-33.7 12.5 0 19.9 4 28.2 11l15-18.1C207.5 5.3 195.7 0 176.3 0c-32.7 0-56.6 25.2-56.6 56v0.3c0 32 23.1 55.7 56.7 55.7 19.7 0 35-7.7 46.1-17.2v-47h-46.9V68.4zM247.7 110.1h23.7V1.9h-23.7V110.1zM322.5 1.9h-23.7v108.3h77.5V88.5h-53.8V1.9zM416.4 88.9V66.2h50.9V45h-50.9v-22h57.8V1.9h-81.4v108.3H475V88.9H416.4z"></path>
<path fill="#684D75" id="intheCity" d="M14.4 182.8v-35.1H4.4v35.1H14.4zM14.6 135H4.2v8.8h10.5V135zM33 163.2c0-4.7 2.4-7.1 6.2-7.1 3.8 0 6 2.4 6 7.1v19.6h9.9v-22.7c0-8-4.4-13-11.9-13 -5 0-8 2.7-10.3 5.6v-5h-9.9v35.1H33V163.2zM14.1 193.4H4.2v9H0v8.5h4.2v16.6c0 8.1 4.1 10.5 10.2 10.5 3.3 0 5.7-0.8 7.8-2v-8c-1.4 0.8-3.1 1.2-4.9 1.2 -2.2 0-3.2-1.1-3.2-3.4v-15h8.2v-8.5h-8.2V193.4zM49.8 201.7c-5 0-8 2.7-10.3 5.6v-17.7h-9.9v47.8h9.9v-19.6c0-4.7 2.4-7.1 6.2-7.1 3.8 0 6 2.4 6 7.1v19.6h9.9v-22.7C61.7 206.7 57.4 201.7 49.8 201.7zM84.7 201.7c-10.2 0-17.3 8.2-17.3 18.3v0.1c0 10.7 7.8 18.1 18.3 18.1 6.3 0 11-2.5 14.3-6.5l-5.7-5c-2.7 2.6-5.2 3.6-8.5 3.6 -4.4 0-7.6-2.4-8.6-6.9h24.4c0.1-0.9 0.1-1.8 0.1-2.6C101.7 210.8 96.4 201.7 84.7 201.7zM77.1 217.1c0.8-4.5 3.5-7.5 7.6-7.5 4.2 0 6.8 3 7.4 7.5H77.1zM183.6 218.6c-18 0-30.5-15.1-30.5-33.1v-0.3c0-18.1 12.8-32.8 30.5-32.8 10.5 0 18.8 4.5 26.9 11.9l14.7-17c-9.8-9.6-21.6-16.3-41.5-16.3 -32.3 0-54.9 24.5-54.9 54.5v0.3c0 30.3 23 54.2 54 54.2 20.3 0 32.3-7.2 43.1-18.8l-14.7-14.9C203 213.8 195.6 218.6 183.6 218.6zM241 238.2h23.1V132.8H241V238.2zM276.9 154.2h32v84h23.1v-84h32v-21.4h-87.2V154.2zM448.7 132.8l-25.5 42.3L398 132.8H371l40.4 63.8v41.6h23.1v-42l40.4-63.4H448.7z"></path>
</svg>