<?xml version="1.0" encoding="utf-8"?>
<!-- Generator: Adobe Illustrator 19.1.0, SVG Export Plug-In . SVG Version: 6.00 Build 0)  -->
<svg version="1.1" id="Layer_1" xmlns="http://www.w3.org/2000/svg" xmlns:xlink="http://www.w3.org/1999/xlink" x="0px" y="0px"
	 viewBox="0 0 595.3 245.7" style="enable-background:new 0 0 595.3 245.7;" xml:space="preserve">
<style type="text/css">
	.st0{fill:#1C1C1A;}
	.st1{fill:#159CCA;}
	.st2{fill:#FFFFFF;}
</style>
<g>
	<path class="st0" d="M126.2,202.1c-1.3-1.1-2.5-2.3-3.7-3.6c-0.3-0.3-0.8-0.3-1.1,0.1c-0.4,0.3-0.5,0.8-0.2,1.1
		c1.2,1.3,2.4,2.5,3.8,3.7c0.1,0.1,0.3,0.1,0.4,0.1c0.2,0,0.5-0.1,0.7-0.3C126.5,202.8,126.5,202.3,126.2,202.1L126.2,202.1z
		 M113,178.2c-0.1-0.4-0.5-0.6-0.9-0.4c-0.5,0.2-0.8,0.6-0.7,1c0.3,1.8,0.7,3.6,1.2,5.3c0.1,0.3,0.3,0.4,0.6,0.4
		c0.1,0,0.3,0,0.4-0.1c0.4-0.2,0.7-0.7,0.6-1C113.6,181.7,113.3,180,113,178.2z M112.7,166.1c0-0.4-0.3-0.7-0.7-0.7
		c-0.4,0.1-0.9,0.5-0.9,0.9c-0.2,1.9-0.3,3.9-0.3,5.7c0,0.4,0.3,0.6,0.6,0.6c0.1,0,0.1,0,0.2,0c0.5-0.1,0.8-0.5,0.8-0.9
		C112.4,169.9,112.5,168,112.7,166.1z M116.3,189.2c-0.2-0.4-0.6-0.4-1.1-0.2c-0.4,0.3-0.6,0.7-0.5,1.1c0.8,1.6,1.6,3.1,2.6,4.6
		c0.1,0.2,0.3,0.3,0.5,0.3c0.2,0,0.4-0.1,0.6-0.2c0.4-0.3,0.6-0.8,0.4-1.1C117.9,192.2,117.1,190.7,116.3,189.2z M147.4,211.6
		c-1.9-0.3-3.7-0.7-5.4-1.2c-0.4-0.1-0.9,0.1-1.1,0.6c-0.2,0.4-0.1,0.8,0.3,1c1.8,0.5,3.7,0.9,5.6,1.2c0,0,0.1,0,0.1,0
		c0.4,0,0.8-0.3,0.9-0.6C148.1,212,147.9,211.6,147.4,211.6z M135.9,208.2L135.9,208.2c-1.6-0.7-3.2-1.5-4.7-2.5
		c-0.3-0.2-0.9-0.1-1.2,0.3c-0.3,0.4-0.3,0.8,0.1,1.1c1.5,0.9,3.1,1.8,4.8,2.5c0.1,0,0.2,0.1,0.3,0.1c0.3,0,0.7-0.2,0.9-0.5
		C136.4,208.8,136.3,208.3,135.9,208.2z M227.1,158.3c0.1-0.4-0.2-0.8-0.6-0.8c-0.4,0-0.9,0.3-1,0.8c-3.7,14.9-13.4,28.4-25.9,38.2
		c-12,9.3-26.7,15.3-41.4,15.8l2.6-2c0.4-0.3,0.5-0.8,0.3-1.1c-0.2-0.3-0.7-0.3-1.1,0l-5,3.9l0.4,0.5c0,0,0,0,0,0l2.6,3.3
		c0.1,0.1,0.3,0.2,0.5,0.2c0.2,0,0.4-0.1,0.6-0.2c0.4-0.3,0.5-0.8,0.3-1.1l-1.6-2.1C188.8,212.8,219.6,188.3,227.1,158.3z
		 M226.6,138.4c0,0.3,0.3,0.5,0.6,0.5c0.1,0,0.2,0,0.3-0.1c0.4-0.2,0.8-0.6,0.7-1c-0.3-1.8-0.7-3.6-1.2-5.3c-0.1-0.4-0.6-0.5-1-0.3
		c-0.4,0.2-0.7,0.7-0.6,1C226,134.9,226.3,136.7,226.6,138.4z M227.2,144.9c0,1.8-0.1,3.7-0.3,5.6c0,0.4,0.2,0.7,0.6,0.7
		c0,0,0.1,0,0.1,0c0.4-0.1,0.9-0.5,0.9-0.9c0.2-1.9,0.3-3.9,0.3-5.7c0-0.4-0.4-0.7-0.8-0.6C227.5,144.1,227.2,144.5,227.2,144.9
		L227.2,144.9z M223.3,127.4c0.1,0.2,0.3,0.3,0.6,0.3c0.2,0,0.3,0,0.5-0.1c0.4-0.2,0.6-0.7,0.5-1.1c-0.8-1.6-1.6-3.1-2.5-4.6
		c-0.2-0.3-0.7-0.4-1.1-0.1c-0.4,0.3-0.6,0.8-0.4,1.1C221.7,124.4,222.6,125.9,223.3,127.4z M192.2,105c1.9,0.3,3.7,0.7,5.4,1.2
		c0.1,0,0.1,0,0.2,0c0.4,0,0.7-0.2,0.9-0.6c0.2-0.4,0.1-0.8-0.3-0.9c-1.8-0.5-3.7-0.9-5.6-1.2c-0.4-0.1-0.9,0.2-1.1,0.6
		C191.6,104.6,191.8,104.9,192.2,105z M203.7,108.4L203.7,108.4c1.6,0.7,3.2,1.6,4.7,2.5c0.1,0.1,0.2,0.1,0.4,0.1
		c0.3,0,0.6-0.1,0.8-0.4c0.3-0.4,0.3-0.8-0.1-1c-1.5-0.9-3.1-1.8-4.8-2.5c-0.4-0.2-0.9,0-1.2,0.4
		C203.3,107.8,203.4,108.3,203.7,108.4z M217.1,118.1c0.1,0.1,0.3,0.2,0.5,0.2c0.2,0,0.5-0.1,0.7-0.3c0.4-0.3,0.5-0.8,0.2-1.1
		c-1.2-1.3-2.4-2.5-3.8-3.7c-0.3-0.3-0.8-0.2-1.2,0.2c-0.3,0.3-0.4,0.8-0.1,1.1C214.7,115.7,216,116.8,217.1,118.1z M184,104.1
		l0.7-0.6l-3.1-3.9c-0.2-0.3-0.7-0.3-1.1,0c-0.4,0.3-0.5,0.8-0.3,1.1l1.6,2.1c-31,1-61.8,25.4-69.4,55.5c-0.1,0.4,0.2,0.8,0.6,0.8
		c0.4,0,0.9-0.4,1-0.8c3.7-14.9,13.4-28.4,25.9-38.2c12-9.4,26.7-15.3,41.4-15.8l-2.6,2c-0.4,0.3-0.5,0.8-0.3,1.1
		c0.1,0.2,0.3,0.2,0.5,0.2c0.2,0,0.4-0.1,0.6-0.2L184,104.1C184,104.1,184,104.1,184,104.1z"/>
	<path class="st1" d="M136.2,39c-41.7,0-75.5,33.8-75.5,75.5c0,41.7,33.8,75.4,75.5,75.5c41.7,0,75.5-33.8,75.5-75.5
		C211.6,72.8,177.8,39,136.2,39z"/>
	<path class="st2" d="M113,178.2c-0.1-0.4-0.5-0.6-0.9-0.4c-0.5,0.2-0.8,0.6-0.7,1c0.3,1.8,0.7,3.6,1.2,5.3c0.1,0.3,0.3,0.4,0.6,0.4
		c0.1,0,0.3,0,0.4-0.1c0.4-0.2,0.7-0.7,0.6-1C113.6,181.7,113.3,180,113,178.2z M112.7,166.1c0-0.4-0.3-0.7-0.7-0.7
		c-0.4,0.1-0.9,0.5-0.9,0.9c-0.2,1.9-0.3,3.9-0.3,5.7c0,0.4,0.3,0.6,0.6,0.6c0.1,0,0.1,0,0.2,0c0.5-0.1,0.8-0.5,0.8-0.9
		C112.4,169.9,112.5,168,112.7,166.1z M192.2,105c1.9,0.3,3.7,0.7,5.4,1.2c0.1,0,0.1,0,0.2,0c0.4,0,0.7-0.2,0.9-0.6
		c0.2-0.4,0.1-0.8-0.3-0.9c-1.8-0.5-3.7-0.9-5.6-1.2c-0.4-0.1-0.9,0.2-1.1,0.6C191.6,104.6,191.8,104.9,192.2,105z M203.7,108.4
		L203.7,108.4c1.6,0.7,3.2,1.6,4.7,2.5c0.1,0.1,0.2,0.1,0.4,0.1c0.3,0,0.6-0.1,0.8-0.4c0.3-0.4,0.3-0.8-0.1-1
		c-1.5-0.9-3.1-1.8-4.8-2.5c-0.4-0.2-0.9,0-1.2,0.4C203.3,107.8,203.4,108.3,203.7,108.4z M184,104.1l0.7-0.6l-3.1-3.9
		c-0.2-0.3-0.7-0.3-1.1,0c-0.4,0.3-0.5,0.8-0.3,1.1l1.6,2.1c-31,1-61.8,25.4-69.4,55.5c-0.1,0.4,0.2,0.8,0.6,0.8
		c0.4,0,0.9-0.4,1-0.8c3.7-14.9,13.4-28.4,25.9-38.2c12-9.4,26.7-15.3,41.4-15.8l-2.6,2c-0.4,0.3-0.5,0.8-0.3,1.1
		c0.1,0.2,0.3,0.2,0.5,0.2c0.2,0,0.4-0.1,0.6-0.2L184,104.1C184,104.1,184,104.1,184,104.1z"/>
</g>
<g>
	<path class="st0" d="M287.1,74.7h6.2v39.2h-6.6l-16.1-28.1v28.1h-6.2V74.7h6.6l16.1,28.2V74.7z"/>
	<path class="st0" d="M324.9,101.4h-20c0,4.4,2.6,7.8,7,7.8c3.1,0,6-1.8,7.4-4.8l5,2c-2.9,5.5-6.2,8-12.4,8
		c-9.3,0-13.2-7.8-13.2-14.6c0-6.7,3.9-14.6,13.2-14.6c9,0,13,7.3,13,13.7V101.4z M305,96.6h13.7c-0.5-3.5-2.9-6.2-6.8-6.2
		C308.1,90.4,305.7,92.9,305,96.6z"/>
	<path class="st0" d="M359.9,85.7h6.2l-9,28.2h-5.3L346.6,94l-5.1,19.9h-5.3l-9-28.2h6.2l5.4,20.6l5-20.6h5.6l5,20.6L359.9,85.7z"/>
	<path class="st0" d="M273.2,130.7h5.8l13.6,39.2h-6.3l-3.2-9.7h-14l-3.2,9.7h-6.3L273.2,130.7z M276.2,138.5l-5.2,15.8h10.3
		L276.2,138.5z"/>
	<path class="st0" d="M307.8,141.2c1.4,0,2.8,0.4,4.3,1.1c1.5,0.7,2.6,1.5,3.2,2.5v-14.6h5.8v39.6h-5.8v-3.2
		c-1.1,1.8-4.3,3.7-7.7,3.7c-8.2,0-12.6-5.4-12.6-14.6C295.1,146.8,299.6,141.2,307.8,141.2z M301.3,155.8c0,2.9,0.7,5.2,2,6.9
		c1.3,1.7,3.1,2.5,5.2,2.5s3.9-0.8,5.2-2.5c1.3-1.7,2-4,2-6.9c0-2.9-0.7-5.2-2-6.8c-1.3-1.7-3.1-2.6-5.2-2.6s-3.9,0.8-5.2,2.6
		C302,150.6,301.3,152.9,301.3,155.8z"/>
	<path class="st0" d="M326.1,141.7h5.9l6.2,20.3l6.2-20.3h5.9l-9.4,28.2h-5.5L326.1,141.7z"/>
	<path class="st0" d="M378.3,157.4h-20c0,4.4,2.6,7.8,7,7.8c3.1,0,6-1.8,7.4-4.8l5,2c-2.9,5.5-6.2,8-12.4,8
		c-9.3,0-13.2-7.8-13.2-14.6c0-6.7,3.9-14.6,13.2-14.6c9,0,13,7.3,13,13.7V157.4z M358.4,152.6h13.7c-0.5-3.5-2.9-6.2-6.8-6.2
		C361.6,146.4,359.1,148.9,358.4,152.6z"/>
	<path class="st0" d="M384,141.7h5.8v4.8c2-3.4,5.4-5.3,9.1-5.3c5,0,8.3,3.1,8.3,8.5v20.2h-5.8v-18.4c0-3.4-1.5-5.2-4.4-5.2
		c-2,0-3.6,1.1-5.1,3.3c-1.4,2.2-2.1,5.1-2.1,8.8v11.4H384V141.7z"/>
	<path class="st0" d="M411.5,146.8v-5.2h4.7v-7.8l5.8-3.6v11.4h7.3v5.2H422v13.8c0,3.1,1.2,4.6,3.8,4.6c1,0,1.8-0.3,2.7-0.8l1.5,4.9
		c-1.4,0.7-2.9,1-4.5,1c-5.6,0-9.2-3.4-9.2-10.1v-13.4H411.5z"/>
	<path class="st0" d="M458.2,169.9h-5.8v-4.8c-2,3.4-5.4,5.3-9.1,5.3c-5,0-8.3-3.1-8.3-8.5v-20.2h5.8v18.4c0,3.4,1.5,5.2,4.4,5.2
		c2,0,3.6-1.1,5-3.2c1.5-2.2,2.2-5.2,2.2-8.8v-11.4h5.8V169.9z"/>
	<path class="st0" d="M471.5,169.9h-5.8v-28.2h5.8v4.7c1.8-3.3,5.2-5.2,8.3-5.2c1.3,0,2.5,0.2,3.6,0.7l-1,5.3
		c-0.9-0.6-2-0.8-3.3-0.8c-2.1,0-3.9,1.1-5.4,3.4c-1.5,2.2-2.2,5.4-2.2,9.6V169.9z"/>
	<path class="st0" d="M511.2,157.4h-20c0,4.4,2.6,7.8,7,7.8c3.1,0,6-1.8,7.4-4.8l5,2c-2.9,5.5-6.2,8-12.4,8
		c-9.3,0-13.2-7.8-13.2-14.6c0-6.7,3.9-14.6,13.2-14.6c9,0,13,7.3,13,13.7V157.4z M491.3,152.6H505c-0.5-3.5-2.9-6.2-6.8-6.2
		C494.4,146.4,492,148.9,491.3,152.6z"/>
	<path class="st0" d="M533.8,145.7l-3.7,3.2c-1.3-1.7-3-2.6-4.9-2.6c-1.6,0-2.8,1-2.8,2.8c0,0.6,0.2,1.2,0.7,1.7
		c1,1,1.9,1.4,4.3,2.3c2,0.7,2.8,1,4.4,2.1c2.2,1.3,3.3,3,3.5,6.1c0,2.5-0.9,4.6-2.7,6.4c-1.8,1.7-4.1,2.6-7.1,2.6
		c-5.4,0-9.2-3.5-10.9-7.6l4.9-2.7c1.5,3.4,3.6,5.1,6.2,5.1c2.5,0,3.8-1.2,3.8-3.7c0-1-0.4-1.6-1.5-2.2c-0.5-0.3-1-0.6-1.5-0.8
		c-0.8-0.4-2.9-1.1-3.8-1.5c-4-1.7-6-4.3-6-7.7c0-2.2,0.8-4.1,2.5-5.7c1.6-1.6,3.7-2.4,6.2-2.4C528.9,141.2,532,143,533.8,145.7z"/>
</g>
</svg>
