<?xml version="1.0" encoding="UTF-8"?>
<svg width="275px" height="203px" viewBox="0 0 275 203" version="1.1" xmlns="http://www.w3.org/2000/svg" xmlns:xlink="http://www.w3.org/1999/xlink">
    <!-- Generator: Sketch 43.2 (39069) - http://www.bohemiancoding.com/sketch -->
    <title>CCS-supplier-logo-white</title>
    <desc>Created with Sketch.</desc>
    <defs></defs>
    <g id="Page-1" stroke="none" stroke-width="1" fill="none" fill-rule="evenodd">
        <g id="CCS-supplier-logo-white" transform="translate(0.000000, -77.000000)" fill="#FFFFFF">
            <path d="M50.447,88.789 C49.458,83.79 45.448,81.265 40.548,81.265 C32.133,81.265 28.569,88.195 28.569,95.57 C28.569,103.638 32.133,110.371 40.597,110.371 C46.785,110.371 50.349,106.015 50.794,100.173 L55.497,100.173 C54.606,108.984 49.111,114.332 40.201,114.332 C29.212,114.332 23.866,106.212 23.866,95.917 C23.866,85.67 29.707,77.305 40.597,77.305 C47.973,77.305 54.061,81.265 55.15,88.789 L50.447,88.789" id="Fill-1"></path>
            <path d="M59.293,87.898 L63.253,87.898 L63.253,93.294 L63.352,93.294 C65.381,89.185 68.203,87.156 72.757,87.304 L72.757,91.759 C65.976,91.759 63.501,95.621 63.501,102.105 L63.501,113.49 L59.293,113.49 L59.293,87.898" id="Fill-2"></path>
            <path d="M85.651,110.371 C90.056,110.371 93.62,106.906 93.62,100.718 C93.62,94.482 90.056,91.017 85.651,91.017 C81.245,91.017 77.681,94.482 77.681,100.718 C77.681,106.906 81.245,110.371 85.651,110.371 Z M85.651,87.304 C93.769,87.304 98.075,93.195 98.075,100.718 C98.075,108.193 93.769,114.083 85.651,114.083 C77.533,114.083 73.227,108.193 73.227,100.718 C73.227,93.195 77.533,87.304 85.651,87.304 L85.651,87.304 Z" id="Fill-3"></path>
            <polyline id="Fill-4" points="126.294 113.49 121.839 113.49 116.642 93.144 116.543 93.144 111.395 113.49 106.841 113.49 98.624 87.898 103.277 87.898 109.068 108.835 109.167 108.835 114.315 87.898 118.919 87.898 124.265 108.835 124.364 108.835 130.106 87.898 134.462 87.898 126.294 113.49"></polyline>
            <path d="M137.259,87.898 L141.219,87.898 L141.219,91.957 L141.318,91.957 C143.1,88.789 145.971,87.304 149.634,87.304 C156.366,87.304 158.445,91.165 158.445,96.66 L158.445,113.49 L154.238,113.49 L154.238,96.164 C154.238,93.046 152.258,91.017 149.04,91.017 C143.942,91.017 141.467,94.431 141.467,99.035 L141.467,113.49 L137.259,113.49 L137.259,87.898" id="Fill-5"></path>
            <path d="M50.447,140.789 C49.458,135.79 45.448,133.265 40.548,133.265 C32.133,133.265 28.569,140.195 28.569,147.57 C28.569,155.638 32.133,162.371 40.597,162.371 C46.785,162.371 50.349,158.015 50.794,152.173 L55.497,152.173 C54.606,160.984 49.111,166.332 40.201,166.332 C29.212,166.332 23.866,158.212 23.866,147.917 C23.866,137.671 29.707,129.304 40.597,129.304 C47.973,129.304 54.061,133.265 55.15,140.789 L50.447,140.789" id="Fill-6"></path>
            <path d="M70.599,162.371 C75.004,162.371 78.568,158.906 78.568,152.718 C78.568,146.482 75.004,143.017 70.599,143.017 C66.193,143.017 62.629,146.482 62.629,152.718 C62.629,158.906 66.193,162.371 70.599,162.371 Z M70.599,139.304 C78.716,139.304 83.023,145.195 83.023,152.718 C83.023,160.193 78.716,166.084 70.599,166.084 C62.481,166.084 58.174,160.193 58.174,152.718 C58.174,145.195 62.481,139.304 70.599,139.304 L70.599,139.304 Z" id="Fill-7"></path>
            <path d="M86.81,139.898 L90.77,139.898 L90.77,143.66 L90.869,143.66 C92.75,140.789 95.621,139.304 99.135,139.304 C102.253,139.304 105.125,140.542 106.164,143.66 C107.896,140.937 110.916,139.304 114.183,139.304 C119.281,139.304 122.697,141.433 122.697,146.728 L122.697,165.49 L118.489,165.49 L118.489,148.709 C118.489,145.541 117.648,143.017 113.539,143.017 C109.48,143.017 106.857,145.591 106.857,149.55 L106.857,165.49 L102.649,165.49 L102.649,148.709 C102.649,145.392 101.61,143.017 97.848,143.017 C92.849,143.017 91.017,147.621 91.017,149.55 L91.017,165.49 L86.81,165.49 L86.81,139.898" id="Fill-8"></path>
            <path d="M127.85,139.898 L131.81,139.898 L131.81,143.66 L131.909,143.66 C133.79,140.789 136.661,139.304 140.175,139.304 C143.293,139.304 146.165,140.542 147.204,143.66 C148.937,140.937 151.956,139.304 155.223,139.304 C160.321,139.304 163.737,141.433 163.737,146.728 L163.737,165.49 L159.529,165.49 L159.529,148.709 C159.529,145.541 158.688,143.017 154.579,143.017 C150.521,143.017 147.897,145.591 147.897,149.55 L147.897,165.49 L143.689,165.49 L143.689,148.709 C143.689,145.392 142.65,143.017 138.888,143.017 C133.889,143.017 132.057,147.621 132.057,149.55 L132.057,165.49 L127.85,165.49 L127.85,139.898" id="Fill-9"></path>
            <path d="M186.645,150.244 C186.447,146.234 183.427,143.017 179.27,143.017 C174.864,143.017 172.24,146.334 171.943,150.244 L186.645,150.244 Z M190.704,157.371 C189.565,163.015 185.506,166.084 179.765,166.084 C171.597,166.084 167.736,160.441 167.488,152.619 C167.488,144.947 172.538,139.304 179.517,139.304 C188.575,139.304 191.347,147.769 191.1,153.957 L171.943,153.957 C171.795,158.412 174.319,162.371 179.913,162.371 C183.378,162.371 185.803,160.687 186.546,157.371 L190.704,157.371 L190.704,157.371 Z" id="Fill-10"></path>
            <path d="M194.491,139.898 L198.451,139.898 L198.451,145.294 L198.55,145.294 C200.579,141.185 203.4,139.156 207.955,139.304 L207.955,143.759 C201.173,143.759 198.698,147.621 198.698,154.105 L198.698,165.49 L194.491,165.49 L194.491,139.898" id="Fill-11"></path>
            <path d="M227.209,148.115 C226.566,144.898 224.338,143.017 220.874,143.017 C214.785,143.017 212.904,147.818 212.904,153.015 C212.904,157.718 215.032,162.371 220.378,162.371 C224.438,162.371 226.863,159.996 227.407,156.134 L231.714,156.134 C230.773,162.371 226.863,166.084 220.428,166.084 C212.607,166.084 208.449,160.638 208.449,153.015 C208.449,145.343 212.409,139.304 220.527,139.304 C226.318,139.304 230.971,142.027 231.565,148.115 L227.209,148.115" id="Fill-12"></path>
            <path d="M235.476,165.49 L239.683,165.49 L239.683,139.898 L235.476,139.898 L235.476,165.49 Z M235.476,135.294 L239.683,135.294 L239.683,130.146 L235.476,130.146 L235.476,135.294 Z" id="Fill-13"></path>
            <path d="M260.794,152.273 C259.161,153.46 255.993,153.511 253.171,154.005 C250.399,154.5 248.023,155.49 248.023,158.609 C248.023,161.38 250.399,162.371 252.973,162.371 C258.517,162.371 260.794,158.906 260.794,156.58 L260.794,152.273 Z M267.625,165.39 C266.882,165.835 265.942,166.084 264.605,166.084 C262.427,166.084 261.042,164.896 261.042,162.123 C258.715,164.845 255.597,166.084 252.033,166.084 C247.379,166.084 243.568,164.003 243.568,158.906 C243.568,153.115 247.875,151.876 252.23,151.035 C256.883,150.144 260.843,150.441 260.843,147.273 C260.843,143.611 257.824,143.017 255.151,143.017 C251.587,143.017 248.963,144.105 248.766,147.867 L244.558,147.867 C244.806,141.531 249.706,139.304 255.398,139.304 C260.002,139.304 265.001,140.343 265.001,146.334 L265.001,159.5 C265.001,161.48 265.001,162.371 266.338,162.371 C266.685,162.371 267.081,162.322 267.625,162.123 L267.625,165.39 L267.625,165.39 Z" id="Fill-14"></path>
            <polygon id="Fill-15" points="270.738 165.49 274.946 165.49 274.946 130.146 270.738 130.146"></polygon>
            <path d="M46.042,192.492 C45.498,187.443 42.132,185.265 37.281,185.265 C33.321,185.265 29.361,186.701 29.361,191.304 C29.361,195.66 35.004,196.304 40.696,197.591 C46.339,198.878 51.982,200.857 51.982,207.787 C51.982,215.312 44.606,218.332 38.172,218.332 C30.252,218.332 23.569,214.47 23.569,205.857 L28.024,205.857 C28.024,211.796 32.974,214.371 38.32,214.371 C42.577,214.371 47.279,213.035 47.279,207.935 C47.279,203.085 41.637,202.244 35.994,201.005 C30.351,199.769 24.658,198.134 24.658,191.65 C24.658,184.472 31.044,181.304 37.479,181.304 C44.706,181.304 50.2,184.72 50.497,192.492 L46.042,192.492" id="Fill-16"></path>
            <path d="M73.693,202.244 C73.495,198.234 70.475,195.017 66.317,195.017 C61.912,195.017 59.288,198.334 58.991,202.244 L73.693,202.244 Z M77.751,209.371 C76.613,215.015 72.554,218.084 66.813,218.084 C58.645,218.084 54.784,212.441 54.536,204.619 C54.536,196.947 59.585,191.304 66.565,191.304 C75.623,191.304 78.395,199.769 78.147,205.957 L58.991,205.957 C58.843,210.412 61.367,214.371 66.961,214.371 C70.426,214.371 72.851,212.687 73.594,209.371 L77.751,209.371 L77.751,209.371 Z" id="Fill-17"></path>
            <path d="M81.538,191.898 L85.498,191.898 L85.498,197.294 L85.597,197.294 C87.626,193.185 90.448,191.156 95.002,191.304 L95.002,195.759 C88.221,195.759 85.746,199.621 85.746,206.105 L85.746,217.49 L81.538,217.49 L81.538,191.898" id="Fill-18"></path>
            <polyline id="Fill-19" points="110.173 217.49 105.668 217.49 96.165 191.898 100.867 191.898 108.044 213.232 108.144 213.232 115.123 191.898 119.528 191.898 110.173 217.49"></polyline>
            <path d="M122.315,217.49 L126.523,217.49 L126.523,191.898 L122.315,191.898 L122.315,217.49 Z M122.315,187.294 L126.523,187.294 L126.523,182.146 L122.315,182.146 L122.315,187.294 Z" id="Fill-20"></path>
            <path d="M149.243,200.115 C148.599,196.898 146.372,195.017 142.907,195.017 C136.818,195.017 134.937,199.818 134.937,205.015 C134.937,209.718 137.065,214.371 142.412,214.371 C146.471,214.371 148.896,211.996 149.44,208.134 L153.747,208.134 C152.807,214.371 148.896,218.084 142.461,218.084 C134.64,218.084 130.482,212.638 130.482,205.015 C130.482,197.343 134.442,191.304 142.56,191.304 C148.352,191.304 153.004,194.027 153.599,200.115 L149.243,200.115" id="Fill-21"></path>
            <path d="M175.22,202.244 C175.021,198.234 172.002,195.017 167.844,195.017 C163.438,195.017 160.815,198.334 160.518,202.244 L175.22,202.244 Z M179.278,209.371 C178.14,215.015 174.081,218.084 168.339,218.084 C160.172,218.084 156.311,212.441 156.063,204.619 C156.063,196.947 161.112,191.304 168.092,191.304 C177.15,191.304 179.922,199.769 179.674,205.957 L160.518,205.957 C160.37,210.412 162.894,214.371 168.488,214.371 C171.953,214.371 174.378,212.687 175.121,209.371 L179.278,209.371 L179.278,209.371 Z" id="Fill-22"></path>
            <polygon id="Fill-23" points="0.329 269.822 3.797 269.822 3.797 77.423 0.329 77.423"></polygon>
            <path d="M50.14,245.317 C50.09,239.102 46.809,237.113 40.742,237.113 C36.366,237.113 31.692,239.15 31.692,244.222 C31.692,248.002 34.676,249.196 37.659,250.09 L41.438,251.234 C46.312,252.726 50.985,254.317 50.985,260.284 C50.985,263.765 48.797,271.222 37.261,271.222 C29.305,271.222 23.488,267.393 23.885,258.792 L27.267,258.792 C26.919,265.704 31.046,268.338 37.51,268.338 C42.134,268.338 47.604,266.05 47.604,260.732 C47.604,255.709 42.731,254.814 38.803,253.67 L35.321,252.626 C31.195,251.434 28.311,248.946 28.311,244.372 C28.311,237.261 34.576,234.227 40.891,234.227 C48.102,234.227 53.919,237.113 53.522,245.317 L50.14,245.317" id="Fill-24"></path>
            <path d="M73.161,270.477 L70.277,270.477 L71.172,265.803 L71.072,265.803 C69.133,268.835 65.752,271.222 61.923,271.222 C57.448,271.222 54.166,269.233 54.166,264.312 C54.166,263.517 54.315,262.47 54.563,261.278 L58.094,244.82 L61.227,244.82 L57.647,261.378 C57.448,262.173 57.299,263.119 57.299,263.963 C57.299,267.345 59.885,268.587 62.669,268.587 C67.194,268.587 71.321,264.51 72.713,257.997 L75.548,244.82 L78.68,244.82 L73.161,270.477" id="Fill-25"></path>
            <path d="M83.452,261.178 C83.452,265.653 86.038,268.587 90.613,268.587 C97.823,268.587 101.552,260.631 101.552,254.368 C101.552,249.992 99.365,246.709 94.641,246.709 C87.431,246.709 83.452,254.814 83.452,261.178 Z M83.651,244.82 L86.486,244.82 L85.492,249.444 L85.591,249.444 C87.778,246.062 90.414,244.073 94.939,244.073 C101.502,244.073 104.685,248.299 104.685,254.565 C104.685,262.422 99.265,271.222 90.663,271.222 C86.635,271.222 83.154,269.533 82.458,265.356 L82.358,265.356 L79.226,279.974 L76.093,279.974 L83.651,244.82 L83.651,244.82 Z" id="Fill-26"></path>
            <path d="M110.501,261.178 C110.501,265.653 113.087,268.587 117.662,268.587 C124.872,268.587 128.602,260.631 128.602,254.368 C128.602,249.992 126.414,246.709 121.689,246.709 C114.479,246.709 110.501,254.814 110.501,261.178 Z M110.7,244.82 L113.535,244.82 L112.54,249.444 L112.64,249.444 C114.828,246.062 117.463,244.073 121.988,244.073 C128.552,244.073 131.734,248.299 131.734,254.565 C131.734,262.422 126.314,271.222 117.711,271.222 C113.684,271.222 110.203,269.533 109.507,265.356 L109.407,265.356 L106.275,279.974 L103.142,279.974 L110.7,244.82 L110.7,244.82 Z" id="Fill-27"></path>
            <polyline id="Fill-28" points="139.589 234.974 142.722 234.974 135.064 270.477 131.931 270.477 139.589 234.974"></polyline>
            <path d="M147.297,234.974 L150.43,234.974 L149.336,239.997 L146.203,239.997 L147.297,234.974 Z M145.159,244.82 L148.292,244.82 L142.772,270.477 L139.639,270.477 L145.159,244.82 L145.159,244.82 Z" id="Fill-29"></path>
            <path d="M169.027,255.858 C169.027,255.163 169.076,254.515 169.076,253.869 C169.076,249.594 166.392,246.709 162.065,246.709 C156.894,246.709 153.363,251.084 152.269,255.858 L169.027,255.858 Z M151.872,258.493 C151.772,259.09 151.723,259.787 151.723,260.482 C151.723,265.108 154.109,268.587 159.181,268.587 C163.259,268.587 166.392,265.952 167.585,262.223 L170.717,262.223 C169.027,267.941 165.099,271.222 159.032,271.222 C152.269,271.222 148.59,266.996 148.59,260.334 C148.59,252.229 153.662,244.073 162.463,244.073 C168.629,244.073 172.209,248.101 172.209,254.069 C172.209,255.51 172.159,256.952 171.96,258.493 L151.872,258.493 L151.872,258.493 Z" id="Fill-30"></path>
            <path d="M177.181,244.82 L180.015,244.82 L178.722,250.736 L178.822,250.736 C180.811,247.057 183.545,244.422 188.12,244.47 C188.667,244.47 189.264,244.47 189.811,244.521 L189.115,247.653 C188.518,247.653 187.921,247.605 187.325,247.605 C181.705,247.704 178.722,252.229 177.678,257.051 L174.793,270.477 L171.661,270.477 L177.181,244.82" id="Fill-31"></path>
        </g>
    </g>
</svg>